<svg width="18" height="18" viewBox="0 0 18 18" fill="none" xmlns="http://www.w3.org/2000/svg">
<g clip-path="url(#clip0_114_1901)">
<path d="M18 5.32915V0H16.938V2.53117H13.729C13.729 1.13318 12.595 0 11.196 0H6.333V1.06123H8.468V4.26692H5.333V0H4.271V2.13346H1.062V0H0V6.98895V7.39666H2.663V10.6023H0V11.6636H3.732H4.337V14.5295V14.8033V15.8645V16.0184V16.9368H1.062V15.8645H3.595V14.8033H1.062V13.7311H3.824V12.6698H1.062H0V17.999H1.062H4.337H4.802H5.4V13.7311H8.469V14.8912H9.531V13.7311H13.278V17.999H14.34V15.8655H16.4C16.696 15.8655 16.937 16.1054 16.937 16.4022V18H18V13.7321C18 13.1455 17.524 12.6708 16.938 12.6708H14.341H13.279H5.4V11.6556C6.665 11.5696 7.689 10.7512 7.904 9.53112H10.604V11.6646H10.692H18V10.6033H15.865V7.39666H18V6.33542H13.729V3.59241H16.938V5.32915H18ZM14.341 13.7321H16.401C16.697 13.7321 16.938 13.9719 16.938 14.2687C16.938 14.5645 16.698 14.8053 16.401 14.8053H14.341V13.7321ZM9.531 2.6281C9.531 1.76273 10.233 1.06123 11.099 1.06123C11.965 1.06123 12.667 1.76273 12.667 2.6281V2.70105C12.667 3.56642 11.965 4.26792 11.099 4.26792C10.233 4.26792 9.531 3.56642 9.531 2.70105V2.6281ZM5.148 10.5983H3.732V10.6033H3.725V7.39666H4.147H5.218C5.955 7.39666 6.849 7.81635 6.849 9.03148C6.85 10.0348 6.113 10.5983 5.148 10.5983ZM14.802 10.6033H11.667V6.33542H10.605V8.46888H7.9C7.666 7.08288 6.575 6.33542 5.133 6.33542H4.148H3.732H1.062V3.19569H4.27V5.32915H5.332H12.665V7.18481V7.39566H14.8V10.6033H14.802Z" fill="black"/>
<path d="M6.78927 16.0364H6.44527V15.6467H6.15527V16.693H6.44527V16.2913H6.78927V16.693H7.07927V15.6467H6.78927V16.0364Z" fill="black"/>
<path d="M7.85855 15.6238C7.56355 15.6238 7.31055 15.8466 7.31055 16.1774C7.31055 16.5111 7.53655 16.716 7.85855 16.716C8.16855 16.716 8.40355 16.5001 8.40355 16.1774C8.40355 15.8426 8.15755 15.6238 7.85855 15.6238ZM7.86455 16.4592C7.71855 16.4592 7.61055 16.3592 7.61055 16.1744C7.61055 15.9805 7.72455 15.8806 7.85455 15.8806C7.99055 15.8806 8.10355 15.9835 8.10355 16.1744C8.10255 16.3562 8.00355 16.4592 7.86455 16.4592Z" fill="black"/>
<path d="M9.79004 15.6467V16.693H10.46V16.4382H10.079V15.6467H9.79004Z" fill="black"/>
<path d="M11.3722 15.8985V15.6467H10.6982V16.693H11.3882V16.4412H10.9882V16.2823H11.3202V16.0454H10.9882V15.8985H11.3722Z" fill="black"/>
<path d="M12.4237 15.9575C12.4237 15.7776 12.2787 15.6467 12.0297 15.6467H11.6387V16.693H11.9287V16.2763H11.9487L12.2087 16.693H12.5317V16.685L12.2297 16.2483C12.3447 16.2043 12.4237 16.1034 12.4237 15.9575ZM12.0157 16.0964H11.9277V15.8766H12.0137C12.0847 15.8766 12.1307 15.9195 12.1307 15.9865C12.1307 16.0634 12.0797 16.0964 12.0157 16.0964Z" fill="black"/>
<path d="M6.6173 17.5674H6.8833V17.8043C6.8423 17.8522 6.7633 17.8752 6.6653 17.8752C6.4503 17.8752 6.2983 17.7223 6.2983 17.4915C6.2983 17.2177 6.4693 17.0878 6.6553 17.0878C6.7943 17.0878 6.8973 17.1477 6.9443 17.1867L6.9793 17.0658C6.9193 17.0218 6.7933 16.9639 6.6583 16.9639C6.3533 16.9639 6.1543 17.1957 6.1543 17.4985C6.1543 17.7593 6.3473 18.0001 6.6563 18.0001C6.8133 18.0001 6.9273 17.9462 7.0213 17.8582V17.4485H6.6153V17.5674H6.6173Z" fill="black"/>
<path d="M8.52762 16.9858H8.39062V17.9781H8.95163V17.8582H8.52762V16.9858Z" fill="black"/>
<path d="M9.34501 16.9858H9.20801V17.9781H9.76901V17.8582H9.34501V16.9858Z" fill="black"/>
<path d="M10.1644 17.5215H10.5454V17.4015H10.1644V17.1058H10.5894V16.9858H10.0264V17.9781H10.6044V17.8582H10.1644V17.5215Z" fill="black"/>
<path d="M11.5083 17.2746C11.5083 17.0898 11.3883 16.9858 11.1783 16.9858H10.9033V17.9781H11.0413V17.5664H11.1203L11.4263 17.9781H11.5813V17.9591L11.2703 17.5534C11.4243 17.5274 11.5083 17.4115 11.5083 17.2746ZM11.0403 17.4525V17.1008H11.1713C11.2883 17.1008 11.3663 17.1547 11.3663 17.2736C11.3663 17.4015 11.2923 17.4535 11.1853 17.4535H11.0403V17.4525Z" fill="black"/>
<path d="M12.1194 17.4035H12.1084L11.8444 16.9858H11.6924L12.0424 17.5364V17.9781H12.1804V17.5364L12.5304 16.9858H12.3784L12.1194 17.4035Z" fill="black"/>
<path d="M9.55877 16.1793C9.55877 15.8346 9.30477 15.6467 8.99477 15.6467H8.63477V15.8926H8.92477H8.93677H9.00977C9.12477 15.8926 9.26677 15.9775 9.26677 16.1753C9.26677 16.3372 9.15177 16.4462 9.00377 16.4462H8.93777H8.92577H8.63577V16.693H8.99777C9.31277 16.693 9.55877 16.4861 9.55877 16.1793Z" fill="black"/>
<path d="M7.66966 16.9568L7.22266 17.978H7.36866L7.67766 17.2336H7.68766L8.00166 17.978H8.14766L7.69766 16.9568H7.66966Z" fill="black"/>
</g>
<defs>
<clipPath id="clip0_114_1901">
<rect width="18" height="18" fill="white"/>
</clipPath>
</defs>
</svg>
