<svg width="293" height="1080" viewBox="0 0 293 1080" fill="none" xmlns="http://www.w3.org/2000/svg">
<path d="M292.999 319.749V0H229.279V151.87H36.7393C36.7393 67.9908 -31.3007 0 -115.241 0H-407.02V63.674H-278.92V256.015H-467.02V0H-530.74V128.007H-723.28V0H-787V419.337V443.799H-627.22V636.14H-787V699.814H-563.08H-526.78V871.77V888.198V951.872V961.105V1016.21H-723.28V951.872H-571.3V888.198H-723.28V823.864H-557.56V760.19H-723.28H-787V1079.94H-723.28H-526.78H-498.88H-463V823.864H-278.86V893.474H-215.141V823.864H9.67932V1079.94H73.3992V951.932H196.999C214.759 951.932 229.219 966.321 229.219 984.128V1080H292.999V823.924C292.999 788.73 264.439 760.25 229.279 760.25H73.4593H9.73926H-463V699.334C-387.1 694.178 -325.66 645.073 -312.76 571.866H-150.761V699.874H-145.481H292.999V636.2H164.899V443.799H292.999V380.125H36.7393V215.544H229.279V319.749H292.999ZM73.4593 823.924H197.059C214.819 823.924 229.279 838.314 229.279 856.121C229.279 873.868 214.879 888.318 197.059 888.318H73.4593V823.924ZM-215.141 157.686C-215.141 105.764 -173.021 63.674 -121.061 63.674C-69.1006 63.674 -26.9807 105.764 -26.9807 157.686V162.063C-26.9807 213.985 -69.1006 256.075 -121.061 256.075C-173.021 256.075 -215.141 213.985 -215.141 162.063V157.686ZM-478.12 635.9H-563.08V636.2H-563.5V443.799H-538.18H-473.92C-429.7 443.799 -376.06 468.981 -376.06 541.888C-376 602.085 -420.22 635.9 -478.12 635.9ZM101.119 636.2H-86.9807V380.125H-150.701V508.133H-313C-327.04 424.973 -392.5 380.125 -479.02 380.125H-538.12H-563.08H-723.28V191.741H-530.8V319.749H-467.08H-27.1006V431.088V443.739H100.999V636.2H101.119Z" fill="white"/>
</svg>
