<svg width="100" height="100" viewBox="0 0 100 100" fill="none" xmlns="http://www.w3.org/2000/svg">
<path d="M100 29.6064V0H94.1V14.0621H76.2722C76.2722 6.29545 69.9722 0 62.2 0H35.1833V5.89574H47.0444V23.7051H29.6278V0H23.7278V11.8526H5.9V0H0V38.8275V41.0925H14.7944V58.9019H0V64.7976H20.7333H24.0944V80.7195V82.2406V88.1363V88.9913V94.0932H5.9V88.1363H19.9722V82.2406H5.9V76.2838H21.2444V70.3881H5.9H0V99.9944H5.9H24.0944H26.6778H30V76.2838H47.05V82.7291H52.95V76.2838H73.7667V99.9944H79.6667V88.1419H91.1111C92.7556 88.1419 94.0944 89.4743 94.0944 91.1231V100H100V76.2893C100 73.0306 97.3556 70.3936 94.1 70.3936H79.6722H73.7722H30V64.7532C37.0278 64.2758 42.7167 59.7291 43.9111 52.9506H58.9111V64.8032H59.4H100V58.9075H88.1389V41.0925H100V35.1968H76.2722V19.9578H94.1V29.6064H100ZM79.6722 76.2893H91.1167C92.7611 76.2893 94.1 77.6217 94.1 79.2705C94.1 80.9138 92.7667 82.2517 91.1167 82.2517H79.6722V76.2893ZM52.95 14.6006C52.95 9.79293 56.85 5.89574 61.6611 5.89574C66.4722 5.89574 70.3722 9.79293 70.3722 14.6006V15.0058C70.3722 19.8135 66.4722 23.7107 61.6611 23.7107C56.85 23.7107 52.95 19.8135 52.95 15.0058V14.6006ZM28.6 58.8797H20.7333V58.9075H20.6944V41.0925H23.0389H28.9889C33.0833 41.0925 38.05 43.4242 38.05 50.1749C38.0556 55.7486 33.9611 58.8797 28.6 58.8797ZM82.2333 58.9075H64.8167V35.1968H58.9167V47.0494H43.8889C42.5889 39.3494 36.5278 35.1968 28.5167 35.1968H23.0444H20.7333H5.9V17.7538H23.7222V29.6064H29.6222H70.3611V39.9156V41.087H82.2222V58.9075H82.2333Z" fill="white"/>
<path d="M37.7166 89.0911H35.8054V86.926H34.1943V92.7385H35.8054V90.5068H37.7166V92.7385H39.3277V86.926H37.7166V89.0911Z" fill="white"/>
<path d="M43.6548 86.7983C42.0159 86.7983 40.6104 88.0363 40.6104 89.8739C40.6104 91.7281 41.8659 92.8662 43.6548 92.8662C45.377 92.8662 46.6826 91.667 46.6826 89.8739C46.6826 88.0141 45.3159 86.7983 43.6548 86.7983ZM43.6881 91.4394C42.877 91.4394 42.277 90.8843 42.277 89.8572C42.277 88.7802 42.9104 88.2251 43.6326 88.2251C44.3881 88.2251 45.0159 88.7969 45.0159 89.8572C45.0104 90.8676 44.4604 91.4394 43.6881 91.4394Z" fill="white"/>
<path d="M54.3887 86.926V92.7385H58.1109V91.3228H55.9942V86.926H54.3887Z" fill="white"/>
<path d="M63.1771 88.325V86.926H59.4326V92.7385H63.2659V91.3395H61.0437V90.4568H62.8882V89.1411H61.0437V88.325H63.1771Z" fill="white"/>
<path d="M69.0164 88.6526C69.0164 87.6533 68.2108 86.926 66.8275 86.926H64.6553V92.7385H66.2664V90.4235H66.3775L67.8219 92.7385H69.6164V92.6941L67.9386 90.2681C68.5775 90.0238 69.0164 89.4631 69.0164 88.6526ZM66.7497 89.4242H66.2608V88.2029H66.7386C67.1331 88.2029 67.3886 88.4416 67.3886 88.8135C67.3886 89.241 67.1053 89.4242 66.7497 89.4242Z" fill="white"/>
<path d="M36.7607 97.5961H38.2385V98.9118C38.0107 99.1782 37.5718 99.3059 37.0274 99.3059C35.8329 99.3059 34.9885 98.4565 34.9885 97.1741C34.9885 95.653 35.9385 94.9313 36.9718 94.9313C37.744 94.9313 38.3163 95.2644 38.5774 95.4809L38.7718 94.8092C38.4385 94.5649 37.7385 94.2429 36.9885 94.2429C35.294 94.2429 34.1885 95.5309 34.1885 97.213C34.1885 98.662 35.2607 99.9999 36.9774 99.9999C37.8496 99.9999 38.4829 99.7001 39.0051 99.2116V96.9354H36.7496V97.5961H36.7607Z" fill="white"/>
<path d="M47.3715 94.365H46.6104V99.8777H49.727V99.2115H47.3715V94.365Z" fill="white"/>
<path d="M51.9164 94.365H51.1553V99.8777H54.2719V99.2115H51.9164V94.365Z" fill="white"/>
<path d="M56.4659 97.3406H58.5825V96.6744H56.4659V95.0312H58.827V94.365H55.6992V99.8777H58.9103V99.2115H56.4659V97.3406Z" fill="white"/>
<path d="M63.9334 95.9694C63.9334 94.9424 63.2667 94.365 62.1 94.365H60.5723V99.8777H61.3389V97.5904H61.7778L63.4778 99.8777H64.3389V99.7722L62.6112 97.5183C63.4667 97.3739 63.9334 96.7299 63.9334 95.9694ZM61.3334 96.9576V95.0034H62.0612C62.7112 95.0034 63.1445 95.3032 63.1445 95.9638C63.1445 96.6744 62.7334 96.9631 62.1389 96.9631H61.3334V96.9576Z" fill="white"/>
<path d="M67.3273 96.6855H67.2662L65.7995 94.365H64.9551L66.8995 97.4239V99.8777H67.6662V97.4239L69.6106 94.365H68.7662L67.3273 96.6855Z" fill="white"/>
<path d="M53.0992 89.885C53.0992 87.9697 51.688 86.926 49.9658 86.926H47.9658V88.2917H49.5769H49.6436H50.0492C50.688 88.2917 51.4769 88.7636 51.4769 89.8628C51.4769 90.7621 50.838 91.3673 50.0158 91.3673H49.6492H49.5825H47.9714V92.7385H49.9825C51.7325 92.7385 53.0992 91.5893 53.0992 89.885Z" fill="white"/>
<path d="M42.6054 94.2041L40.1221 99.8778H40.9332L42.6498 95.7419H42.7054L44.4498 99.8778H45.261L42.761 94.2041H42.6054Z" fill="white"/>
</svg>
