<svg width="173" height="107" viewBox="0 0 173 107" fill="none" xmlns="http://www.w3.org/2000/svg">
<path d="M6.97159 95.2727V104H5.91477V96.3807H5.86364L3.73295 97.7955V96.7216L5.91477 95.2727H6.97159Z" fill="white"/>
<path d="M156.183 95.2727V104H155.126V96.3807H155.075L152.944 97.7955V96.7216L155.126 95.2727H156.183ZM161.539 104.119C160.897 104.119 160.35 103.945 159.898 103.595C159.447 103.243 159.102 102.733 158.863 102.065C158.624 101.395 158.505 100.585 158.505 99.6364C158.505 98.6932 158.624 97.8878 158.863 97.2202C159.104 96.5497 159.451 96.0384 159.903 95.6861C160.357 95.331 160.903 95.1534 161.539 95.1534C162.175 95.1534 162.719 95.331 163.171 95.6861C163.626 96.0384 163.972 96.5497 164.211 97.2202C164.452 97.8878 164.573 98.6932 164.573 99.6364C164.573 100.585 164.454 101.395 164.215 102.065C163.977 102.733 163.631 103.243 163.18 103.595C162.728 103.945 162.181 104.119 161.539 104.119ZM161.539 103.182C162.175 103.182 162.67 102.875 163.022 102.261C163.374 101.648 163.55 100.773 163.55 99.6364C163.55 98.8807 163.469 98.2372 163.308 97.706C163.148 97.1747 162.918 96.7699 162.617 96.4915C162.319 96.2131 161.96 96.0739 161.539 96.0739C160.908 96.0739 160.415 96.3849 160.06 97.0071C159.705 97.6264 159.528 98.5028 159.528 99.6364C159.528 100.392 159.607 101.034 159.766 101.562C159.925 102.091 160.154 102.493 160.452 102.768C160.754 103.044 161.116 103.182 161.539 103.182ZM169.039 104.119C168.397 104.119 167.85 103.945 167.398 103.595C166.947 103.243 166.602 102.733 166.363 102.065C166.124 101.395 166.005 100.585 166.005 99.6364C166.005 98.6932 166.124 97.8878 166.363 97.2202C166.604 96.5497 166.951 96.0384 167.403 95.6861C167.857 95.331 168.403 95.1534 169.039 95.1534C169.675 95.1534 170.219 95.331 170.671 95.6861C171.126 96.0384 171.472 96.5497 171.711 97.2202C171.952 97.8878 172.073 98.6932 172.073 99.6364C172.073 100.585 171.954 101.395 171.715 102.065C171.477 102.733 171.131 103.243 170.68 103.595C170.228 103.945 169.681 104.119 169.039 104.119ZM169.039 103.182C169.675 103.182 170.17 102.875 170.522 102.261C170.874 101.648 171.05 100.773 171.05 99.6364C171.05 98.8807 170.969 98.2372 170.808 97.706C170.648 97.1747 170.418 96.7699 170.117 96.4915C169.819 96.2131 169.46 96.0739 169.039 96.0739C168.408 96.0739 167.915 96.3849 167.56 97.0071C167.205 97.6264 167.028 98.5028 167.028 99.6364C167.028 100.392 167.107 101.034 167.266 101.562C167.425 102.091 167.654 102.493 167.952 102.768C168.254 103.044 168.616 103.182 169.039 103.182Z" fill="white"/>
<path d="M6 84C6 63.3131 14.2178 43.4735 28.8457 28.8457C43.4735 14.2178 63.3131 6.00001 84 6.00001C104.687 6.00001 124.526 14.2178 139.154 28.8457C153.782 43.4735 162 63.3131 162 84" stroke="url(#paint0_linear_164_1521)" stroke-width="12"/>
<path d="M88 79.5528V76H87.292V77.6874H85.1527C85.1527 76.7555 84.3967 76 83.464 76H80.222V76.7075H81.6453V78.8446H79.5553V76H78.8473V77.4223H76.708V76H76V80.6593V80.9311H77.7753V83.0682H76V83.7757H78.488H78.8913V85.6863V85.8689V86.5764V86.679V87.2912H76.708V86.5764H78.3967V85.8689H76.708V85.1541H78.5493V84.4466H76.708H76V87.9993H76.708H78.8913H79.2013H79.6V85.1541H81.646V85.9275H82.354V85.1541H84.852V87.9993H85.56V86.577H86.9333C87.1307 86.577 87.2913 86.7369 87.2913 86.9348V88H88V85.1547C88 84.7637 87.6827 84.4472 87.292 84.4472H85.5607H84.8527H79.6V83.7704C80.4433 83.7131 81.126 83.1675 81.2693 82.3541H83.0693V83.7764H83.128H88V83.0689H86.5767V80.9311H88V80.2236H85.1527V78.3949H87.292V79.5528H88ZM85.5607 85.1547H86.934C87.1313 85.1547 87.292 85.3146 87.292 85.5125C87.292 85.7097 87.132 85.8702 86.934 85.8702H85.5607V85.1547ZM82.354 77.7521C82.354 77.1752 82.822 76.7075 83.3993 76.7075C83.9767 76.7075 84.4447 77.1752 84.4447 77.7521V77.8007C84.4447 78.3776 83.9767 78.8453 83.3993 78.8453C82.822 78.8453 82.354 78.3776 82.354 77.8007V77.7521ZM79.432 83.0656H78.488V83.0689H78.4833V80.9311H78.7647H79.4787C79.97 80.9311 80.566 81.2109 80.566 82.021C80.5667 82.6898 80.0753 83.0656 79.432 83.0656ZM85.868 83.0689H83.778V80.2236H83.07V81.6459H81.2667C81.1107 80.7219 80.3833 80.2236 79.422 80.2236H78.7653H78.488H76.708V78.1305H78.8467V79.5528H79.5547H84.4433V80.7899V80.9304H85.8667V83.0689H85.868Z" fill="black"/>
<path d="M80.5262 86.691H80.2968V86.4312H80.1035V87.1286H80.2968V86.8608H80.5262V87.1286H80.7195V86.4312H80.5262V86.691Z" fill="black"/>
<path d="M81.2403 86.416C81.0437 86.416 80.875 86.5646 80.875 86.7851C80.875 87.0076 81.0257 87.1442 81.2403 87.1442C81.447 87.1442 81.6037 87.0003 81.6037 86.7851C81.6037 86.5619 81.4397 86.416 81.2403 86.416ZM81.2443 86.9729C81.147 86.9729 81.075 86.9063 81.075 86.7831C81.075 86.6538 81.151 86.5872 81.2377 86.5872C81.3283 86.5872 81.4037 86.6558 81.4037 86.7831C81.403 86.9043 81.337 86.9729 81.2443 86.9729Z" fill="black"/>
<path d="M82.5273 86.4312V87.1286H82.974V86.9588H82.72V86.4312H82.5273Z" fill="black"/>
<path d="M83.5821 86.599V86.4312H83.1328V87.1286H83.5928V86.9608H83.3261V86.8548H83.5475V86.697H83.3261V86.599H83.5821Z" fill="black"/>
<path d="M84.2831 86.6383C84.2831 86.5184 84.1864 86.4312 84.0204 86.4312H83.7598V87.1286H83.9531V86.8508H83.9664L84.1398 87.1286H84.3551V87.1233L84.1538 86.8322C84.2304 86.8029 84.2831 86.7356 84.2831 86.6383ZM84.0111 86.7309H83.9524V86.5844H84.0098C84.0571 86.5844 84.0878 86.613 84.0878 86.6577C84.0878 86.709 84.0538 86.7309 84.0111 86.7309Z" fill="black"/>
<path d="M80.4122 87.7119H80.5895V87.8698C80.5622 87.9018 80.5095 87.9171 80.4442 87.9171C80.3008 87.9171 80.1995 87.8152 80.1995 87.6613C80.1995 87.4788 80.3135 87.3922 80.4375 87.3922C80.5302 87.3922 80.5988 87.4321 80.6302 87.4581L80.6535 87.3775C80.6135 87.3482 80.5295 87.3096 80.4395 87.3096C80.2362 87.3096 80.1035 87.4641 80.1035 87.666C80.1035 87.8399 80.2322 88.0004 80.4382 88.0004C80.5428 88.0004 80.6188 87.9644 80.6815 87.9058V87.6327H80.4108V87.7119H80.4122Z" fill="black"/>
<path d="M81.6851 87.3242H81.5938V87.9857H81.9678V87.9058H81.6851V87.3242Z" fill="black"/>
<path d="M82.23 87.3242H82.1387V87.9857H82.5127V87.9058H82.23V87.3242Z" fill="black"/>
<path d="M82.7775 87.6813H83.0315V87.6014H82.7775V87.4042H83.0609V87.3242H82.6855V87.9857H83.0709V87.9058H82.7775V87.6813Z" fill="black"/>
<path d="M83.6729 87.5167C83.6729 87.3935 83.5929 87.3242 83.4529 87.3242H83.2695V87.9857H83.3615V87.7113H83.4142L83.6182 87.9857H83.7215V87.9731L83.5142 87.7026C83.6169 87.6853 83.6729 87.608 83.6729 87.5167ZM83.3609 87.6353V87.4008H83.4482C83.5262 87.4008 83.5782 87.4368 83.5782 87.5161C83.5782 87.6014 83.5289 87.636 83.4575 87.636H83.3609V87.6353Z" fill="black"/>
<path d="M84.0796 87.6027H84.0723L83.8963 87.3242H83.7949L84.0283 87.6913V87.9857H84.1203V87.6913L84.3536 87.3242H84.2523L84.0796 87.6027Z" fill="black"/>
<path d="M82.3738 86.7862C82.3738 86.5564 82.2045 86.4312 81.9978 86.4312H81.7578V86.595H81.9511H81.9591H82.0078C82.0845 86.595 82.1791 86.6517 82.1791 86.7836C82.1791 86.8915 82.1025 86.9641 82.0038 86.9641H81.9598H81.9518H81.7585V87.1286H81.9998C82.2098 87.1286 82.3738 86.9907 82.3738 86.7862Z" fill="black"/>
<path d="M81.1144 87.3047L80.8164 87.9855H80.9137L81.1197 87.4892H81.1264L81.3357 87.9855H81.4331L81.1331 87.3047H81.1144Z" fill="black"/>
<defs>
<linearGradient id="paint0_linear_164_1521" x1="131.821" y1="57.0714" x2="-1.89286" y2="73.3214" gradientUnits="userSpaceOnUse">
<stop stop-color="#4D9CD2"/>
<stop offset="0.510417" stop-color="#DB9E3E"/>
<stop offset="1" stop-color="#D75129"/>
</linearGradient>
</defs>
</svg>
