<svg width="21" height="20" viewBox="0 0 21 20" fill="none" xmlns="http://www.w3.org/2000/svg">
<g clip-path="url(#clip0_111_1058)">
<path d="M15.9759 2.50006H13.4759C13.3476 2.50006 13.2176 2.47006 13.1034 2.41256L10.4734 1.09756C10.1276 0.925062 9.74174 0.834229 9.35591 0.834229H7.64258C5.34508 0.834229 3.47591 2.7034 3.47591 5.0009V11.6667C3.47591 13.9642 5.34508 15.8334 7.64258 15.8334H15.9759C18.2734 15.8334 20.1426 13.9642 20.1426 11.6667V6.66673C20.1426 4.36923 18.2734 2.50006 15.9759 2.50006ZM7.64258 2.50006H9.35591C9.48424 2.50006 9.61424 2.53006 9.72841 2.58756L12.3576 3.90256C12.7026 4.07506 13.0892 4.1659 13.4759 4.1659H15.9759C17.0626 4.1659 17.9884 4.86256 18.3326 5.83256H5.14258V4.99923C5.14258 3.6209 6.26424 2.49923 7.64258 2.49923V2.50006ZM15.9759 14.1667H7.64258C6.26424 14.1667 5.14258 13.0451 5.14258 11.6667V7.50006H18.4759V11.6667C18.4759 13.0451 17.3542 14.1667 15.9759 14.1667ZM16.8092 18.3334C16.8092 18.7942 16.4367 19.1667 15.9759 19.1667H4.30924C2.01174 19.1667 0.142578 17.2976 0.142578 15.0001V6.66673C0.142578 6.2059 0.515911 5.8334 0.975911 5.8334C1.43591 5.8334 1.80924 6.2059 1.80924 6.66673V15.0001C1.80924 16.3784 2.93091 17.5001 4.30924 17.5001H15.9759C16.4367 17.5001 16.8092 17.8726 16.8092 18.3334Z" fill="white"/>
</g>
<defs>
<clipPath id="clip0_111_1058">
<rect width="20" height="20" fill="white" transform="translate(0.142578)"/>
</clipPath>
</defs>
</svg>
