<svg width="38" height="38" viewBox="0 0 38 38" fill="none" xmlns="http://www.w3.org/2000/svg">
<rect width="38" height="38" rx="10" fill="#4C94F6"/>
<g clip-path="url(#clip0_211_4)">
<path d="M21.1665 13.5833V6.49833C22.1556 6.87317 23.0656 7.45058 23.8369 8.22083L27.6113 11.9973C28.3826 12.7676 28.96 13.6776 29.3348 14.6667H22.2498C21.6518 14.6667 21.1665 14.1803 21.1665 13.5833ZM22.7915 22.25H15.2082C14.9092 22.25 14.6665 22.4927 14.6665 22.7917V24.9583C14.6665 25.2573 14.9092 25.5 15.2082 25.5H22.7915C23.0905 25.5 23.3332 25.2573 23.3332 24.9583V22.7917C23.3332 22.4927 23.0905 22.25 22.7915 22.25ZM29.8332 17.3588V26.5833C29.8332 29.5701 27.4033 32 24.4165 32H13.5832C10.5964 32 8.1665 29.5701 8.1665 26.5833V11.4167C8.1665 8.42992 10.5964 6 13.5832 6H18.4744C18.651 6 18.8254 6.01408 18.9998 6.026V13.5833C18.9998 15.3752 20.458 16.8333 22.2498 16.8333H29.8072C29.8191 17.0078 29.8332 17.1822 29.8332 17.3588ZM12.4998 12.5C12.4998 13.098 12.9852 13.5833 13.5832 13.5833H15.7498C16.3478 13.5833 16.8332 13.098 16.8332 12.5C16.8332 11.902 16.3478 11.4167 15.7498 11.4167H13.5832C12.9852 11.4167 12.4998 11.902 12.4998 12.5ZM12.4998 16.8333C12.4998 17.4313 12.9852 17.9167 13.5832 17.9167H15.7498C16.3478 17.9167 16.8332 17.4313 16.8332 16.8333C16.8332 16.2353 16.3478 15.75 15.7498 15.75H13.5832C12.9852 15.75 12.4998 16.2353 12.4998 16.8333ZM25.4998 22.7917C25.4998 21.2988 24.2843 20.0833 22.7915 20.0833H15.2082C13.7153 20.0833 12.4998 21.2988 12.4998 22.7917V24.9583C12.4998 26.4512 13.7153 27.6667 15.2082 27.6667H22.7915C24.2843 27.6667 25.4998 26.4512 25.4998 24.9583V22.7917Z" fill="white"/>
</g>
<defs>
<clipPath id="clip0_211_4">
<rect width="26" height="26" fill="white" transform="translate(6 6)"/>
</clipPath>
</defs>
</svg>
