<svg width="38" height="38" viewBox="0 0 38 38" fill="none" xmlns="http://www.w3.org/2000/svg">
<rect width="38" height="38" rx="10" fill="#EB6394"/>
<g clip-path="url(#clip0_211_3)">
<path d="M32 25.5C32 26.362 31.6576 27.1886 31.0481 27.7981C30.4386 28.4076 29.612 28.75 28.75 28.75C27.888 28.75 27.0614 28.4076 26.4519 27.7981C25.8424 27.1886 25.5 26.362 25.5 25.5V24.4167C25.5 24.1293 25.3859 23.8538 25.1827 23.6506C24.9795 23.4475 24.704 23.3333 24.4167 23.3333H23.3333V26.5833C23.3316 28.0194 22.7604 29.3961 21.7449 30.4116C20.7295 31.427 19.3527 31.9983 17.9167 32H11.4167C9.98061 31.9983 8.60385 31.427 7.5884 30.4116C6.57296 29.3961 6.00172 28.0194 6 26.5833L6 17.9167H23.3333V21.1667H24.4167C25.2786 21.1667 26.1053 21.5091 26.7148 22.1186C27.3243 22.7281 27.6667 23.5547 27.6667 24.4167V25.5C27.6667 25.7873 27.7808 26.0629 27.984 26.266C28.1871 26.4692 28.4627 26.5833 28.75 26.5833C29.0373 26.5833 29.3129 26.4692 29.516 26.266C29.7192 26.0629 29.8333 25.7873 29.8333 25.5V14.6667C29.2587 14.6667 28.7076 14.4384 28.3013 14.0321C27.8949 13.6257 27.6667 13.0746 27.6667 12.5V9.6985L25.8174 7.84925C25.6201 7.64493 25.5109 7.37128 25.5134 7.08723C25.5158 6.80319 25.6298 6.53147 25.8306 6.33061C26.0315 6.12975 26.3032 6.01582 26.5872 6.01335C26.8713 6.01088 27.1449 6.12008 27.3493 6.31742L30.0966 9.06367C31.2947 10.2552 31.978 11.8688 32 13.5584C32 13.5671 32 25.5 32 25.5ZM23.3333 11.4167C23.3316 9.98061 22.7604 8.60385 21.7449 7.5884C20.7295 6.57296 19.3527 6.00172 17.9167 6L11.4167 6C9.98061 6.00172 8.60385 6.57296 7.5884 7.5884C6.57296 8.60385 6.00172 9.98061 6 11.4167L6 15.75H23.3333V11.4167Z" fill="white"/>
</g>
<defs>
<clipPath id="clip0_211_3">
<rect width="26" height="26" fill="white" transform="translate(6 6)"/>
</clipPath>
</defs>
</svg>
