<svg width="38" height="38" viewBox="0 0 38 38" fill="none" xmlns="http://www.w3.org/2000/svg">
<rect width="38" height="38" rx="10" fill="#77DC95"/>
<g clip-path="url(#clip0_211_5)">
<path d="M25.5 19C24.3586 19.0013 23.237 18.7017 22.2483 18.1314C21.2596 17.561 20.4387 16.7401 19.8684 15.7514C19.2982 14.7626 18.9986 13.641 19 12.4996C19.0014 11.3582 19.3037 10.2373 19.8764 9.25H10.5955L10.55 8.86867C10.4566 8.07848 10.0766 7.35 9.48204 6.82128C8.88743 6.29256 8.11951 6.00034 7.32383 6H7.08333C6.79602 6 6.52047 6.11414 6.3173 6.3173C6.11414 6.52047 6 6.79602 6 7.08333C6 7.37065 6.11414 7.6462 6.3173 7.84937C6.52047 8.05253 6.79602 8.16667 7.08333 8.16667H7.32383C7.58918 8.1667 7.84528 8.26412 8.04357 8.44044C8.24186 8.61676 8.36854 8.85973 8.39958 9.12325L9.89025 21.7983C10.045 23.1164 10.6784 24.3319 11.6701 25.214C12.6618 26.0961 13.9428 26.5834 15.2701 26.5833H26.5833C26.8706 26.5833 27.1462 26.4692 27.3494 26.266C27.5525 26.0629 27.6667 25.7873 27.6667 25.5C27.6667 25.2127 27.5525 24.9371 27.3494 24.734C27.1462 24.5308 26.8706 24.4167 26.5833 24.4167H15.2701C14.5994 24.415 13.9456 24.2059 13.3985 23.818C12.8513 23.43 12.4376 22.8824 12.214 22.25H25.1284C26.3984 22.2501 27.628 21.8039 28.6025 20.9895C29.5769 20.175 30.2342 19.0441 30.4595 17.7943L30.7173 16.3653C30.1147 17.1823 29.3287 17.8464 28.4224 18.304C27.5162 18.7616 26.5152 19 25.5 19Z" fill="white"/>
<path d="M13.5832 32.0001C14.7798 32.0001 15.7498 31.03 15.7498 29.8334C15.7498 28.6368 14.7798 27.6667 13.5832 27.6667C12.3866 27.6667 11.4165 28.6368 11.4165 29.8334C11.4165 31.03 12.3866 32.0001 13.5832 32.0001Z" fill="white"/>
<path d="M24.4167 32.0001C25.6133 32.0001 26.5833 31.03 26.5833 29.8334C26.5833 28.6368 25.6133 27.6667 24.4167 27.6667C23.22 27.6667 22.25 28.6368 22.25 29.8334C22.25 31.03 23.22 32.0001 24.4167 32.0001Z" fill="white"/>
<path d="M22.2498 13.5834H24.4165V15.7501C24.4165 16.0374 24.5306 16.3129 24.7338 16.5161C24.937 16.7193 25.2125 16.8334 25.4998 16.8334C25.7872 16.8334 26.0627 16.7193 26.2659 16.5161C26.469 16.3129 26.5832 16.0374 26.5832 15.7501V13.5834H28.7498C29.0372 13.5834 29.3127 13.4693 29.5159 13.2661C29.719 13.0629 29.8332 12.7874 29.8332 12.5001C29.8332 12.2128 29.719 11.9372 29.5159 11.734C29.3127 11.5309 29.0372 11.4167 28.7498 11.4167H26.5832V9.25008C26.5832 8.96276 26.469 8.68721 26.2659 8.48405C26.0627 8.28088 25.7872 8.16675 25.4998 8.16675C25.2125 8.16675 24.937 8.28088 24.7338 8.48405C24.5306 8.68721 24.4165 8.96276 24.4165 9.25008V11.4167H22.2498C21.9625 11.4167 21.687 11.5309 21.4838 11.734C21.2806 11.9372 21.1665 12.2128 21.1665 12.5001C21.1665 12.7874 21.2806 13.0629 21.4838 13.2661C21.687 13.4693 21.9625 13.5834 22.2498 13.5834Z" fill="white"/>
</g>
<defs>
<clipPath id="clip0_211_5">
<rect width="26" height="26" fill="white" transform="translate(6 6)"/>
</clipPath>
</defs>
</svg>
