<svg width="8" height="8" viewBox="0 0 8 8" fill="none" xmlns="http://www.w3.org/2000/svg">
<path d="M4.33329 6.66667C4.77516 6.66614 5.19877 6.49038 5.51122 6.17793C5.82367 5.86549 5.99943 5.44187 5.99996 5.00001V2.08101C6.00048 1.90579 5.96621 1.73222 5.89915 1.57035C5.83209 1.40847 5.73357 1.26152 5.60929 1.13801L4.86196 0.390673C4.73845 0.266397 4.59149 0.167873 4.42962 0.100813C4.26775 0.0337516 4.09417 -0.000512651 3.91896 5.79653e-06H2.33329C1.89143 0.000535082 1.46781 0.1763 1.15537 0.488746C0.84292 0.801192 0.667155 1.22481 0.666626 1.66667V5.00001C0.667155 5.44187 0.84292 5.86549 1.15537 6.17793C1.46781 6.49038 1.89143 6.66614 2.33329 6.66667H4.33329ZM1.33329 5.00001V1.66667C1.33329 1.40146 1.43865 1.1471 1.62619 0.959566C1.81372 0.772029 2.06808 0.666672 2.33329 0.666672C2.33329 0.666672 3.97296 0.671339 3.99996 0.674672V1.33334C3.99996 1.51015 4.0702 1.67972 4.19522 1.80474C4.32025 1.92977 4.48981 2.00001 4.66663 2.00001H5.32529C5.32863 2.02701 5.33329 5.00001 5.33329 5.00001C5.33329 5.26522 5.22794 5.51958 5.0404 5.70711C4.85286 5.89465 4.59851 6.00001 4.33329 6.00001H2.33329C2.06808 6.00001 1.81372 5.89465 1.62619 5.70711C1.43865 5.51958 1.33329 5.26522 1.33329 5.00001ZM7.33329 2.66667V6.33334C7.33276 6.7752 7.157 7.19882 6.84455 7.51127C6.53211 7.82371 6.10849 7.99948 5.66663 8.00001H2.66663C2.57822 8.00001 2.49344 7.96489 2.43092 7.90238C2.36841 7.83986 2.33329 7.75508 2.33329 7.66667C2.33329 7.57827 2.36841 7.49348 2.43092 7.43097C2.49344 7.36846 2.57822 7.33334 2.66663 7.33334H5.66663C5.93184 7.33334 6.1862 7.22798 6.37373 7.04045C6.56127 6.85291 6.66663 6.59856 6.66663 6.33334V2.66667C6.66663 2.57827 6.70175 2.49348 6.76426 2.43097C6.82677 2.36846 6.91155 2.33334 6.99996 2.33334C7.08837 2.33334 7.17315 2.36846 7.23566 2.43097C7.29817 2.49348 7.33329 2.57827 7.33329 2.66667Z" fill="#858585"/>
</svg>
