<svg width="14" height="14" viewBox="0 0 14 14" fill="none" xmlns="http://www.w3.org/2000/svg">
<g clip-path="url(#clip0_145_93)">
<path d="M5.72207 1.91884C5.08128 2.20111 4.50679 2.6146 4.03568 3.13262C3.56456 3.65064 3.2073 4.26169 2.98695 4.92632C2.76359 5.59293 2.68454 6.29941 2.75505 6.9989C2.82556 7.69839 3.04402 8.37489 3.39593 8.98351C3.94754 9.92896 4.79136 10.6696 5.80035 11.094C6.80934 11.5184 7.92888 11.6035 8.99042 11.3365C9.67248 11.1544 10.3126 10.8413 10.8751 10.4147C11.0211 10.3001 11.1338 10.1485 11.2015 9.97568C11.2693 9.80286 11.2896 9.61508 11.2605 9.43176C11.2313 9.24844 11.1537 9.07625 11.0357 8.93299C10.9176 8.78973 10.7634 8.68062 10.5891 8.61695C8.15118 7.79249 7.216 5.25514 8.48065 2.98511C8.56846 2.82095 8.61067 2.63625 8.60289 2.45025C8.59511 2.26424 8.53762 2.08371 8.4364 1.92746C8.33518 1.77121 8.19394 1.64494 8.02737 1.56179C7.8608 1.47864 7.67499 1.44165 7.48927 1.45467C6.87935 1.51488 6.28285 1.67155 5.72207 1.91884Z" fill="black"/>
</g>
<defs>
<clipPath id="clip0_145_93">
<rect width="10" height="10" fill="white" transform="matrix(0.915451 -0.402429 -0.402429 -0.915451 4.02441 13.5889)"/>
</clipPath>
</defs>
</svg>
