<svg width="21" height="20" viewBox="0 0 21 20" fill="none" xmlns="http://www.w3.org/2000/svg">
<g clip-path="url(#clip0_111_1077)">
<path d="M19.4101 7.55751L13.0893 1.23584C12.307 0.455835 11.2473 0.0178223 10.1426 0.0178223C9.03787 0.0178223 7.97822 0.455835 7.19592 1.23584L0.875088 7.55751C0.642109 7.789 0.457396 8.06443 0.331657 8.36783C0.205917 8.67124 0.141653 8.99658 0.142588 9.32501V17.5058C0.142588 18.1689 0.40598 18.8048 0.874821 19.2736C1.34366 19.7425 1.97955 20.0058 2.64259 20.0058H17.6426C18.3056 20.0058 18.9415 19.7425 19.4104 19.2736C19.8792 18.8048 20.1426 18.1689 20.1426 17.5058V9.32501C20.1435 8.99658 20.0793 8.67124 19.9535 8.36783C19.8278 8.06443 19.6431 7.789 19.4101 7.55751V7.55751ZM12.6426 18.3392H7.64259V15.0608C7.64259 14.3978 7.90598 13.7619 8.37482 13.2931C8.84366 12.8242 9.47955 12.5608 10.1426 12.5608C10.8056 12.5608 11.4415 12.8242 11.9104 13.2931C12.3792 13.7619 12.6426 14.3978 12.6426 15.0608V18.3392ZM18.4759 17.5058C18.4759 17.7269 18.3881 17.9388 18.2318 18.0951C18.0756 18.2514 17.8636 18.3392 17.6426 18.3392H14.3093V15.0608C14.3093 13.9558 13.8703 12.896 13.0889 12.1146C12.3075 11.3332 11.2477 10.8942 10.1426 10.8942C9.03752 10.8942 7.97771 11.3332 7.19631 12.1146C6.41491 12.896 5.97592 13.9558 5.97592 15.0608V18.3392H2.64259C2.42157 18.3392 2.20961 18.2514 2.05333 18.0951C1.89705 17.9388 1.80926 17.7269 1.80926 17.5058V9.32501C1.81003 9.10416 1.89775 8.8925 2.05342 8.73584L8.37426 2.41668C8.84401 1.94912 9.47981 1.68663 10.1426 1.68663C10.8054 1.68663 11.4412 1.94912 11.9109 2.41668L18.2318 8.73834C18.3868 8.89438 18.4745 9.10503 18.4759 9.32501V17.5058Z" fill="white"/>
</g>
<defs>
<clipPath id="clip0_111_1077">
<rect width="20" height="20" fill="white" transform="translate(0.142578)"/>
</clipPath>
</defs>
</svg>
