<svg width="22" height="22" viewBox="0 0 22 22" fill="none" xmlns="http://www.w3.org/2000/svg">
<circle opacity="0.2" cx="11" cy="11" r="11" fill="#6D81CE"/>
<g clip-path="url(#clip0_480_24878)">
<path d="M14.4655 7.82125C13.828 7.52875 13.1446 7.31333 12.43 7.19C12.4171 7.1875 12.4042 7.19375 12.3971 7.20542C12.3092 7.36167 12.2117 7.56583 12.1438 7.72583C11.375 7.61083 10.6105 7.61083 9.85754 7.72583C9.78962 7.56208 9.68837 7.36167 9.60045 7.20542C9.59337 7.19375 9.58045 7.18792 9.56754 7.19C8.85337 7.31292 8.17004 7.52833 7.53212 7.82125C7.5267 7.82333 7.5217 7.8275 7.51879 7.8325C6.22254 9.76917 5.86712 11.6583 6.04129 13.5242C6.04212 13.5333 6.04712 13.5421 6.0542 13.5475C6.90962 14.1758 7.73795 14.5571 8.55129 14.8096C8.5642 14.8137 8.57795 14.8087 8.58629 14.7979C8.77879 14.5354 8.95004 14.2583 9.09712 13.9671C9.10587 13.95 9.09754 13.9296 9.07962 13.9229C8.80754 13.8196 8.54879 13.6937 8.29962 13.5512C8.28004 13.5396 8.27837 13.5117 8.29629 13.4979C8.34879 13.4587 8.40129 13.4179 8.45129 13.3767C8.46045 13.3692 8.47295 13.3675 8.48379 13.3725C10.1205 14.1196 11.8921 14.1196 13.5092 13.3725C13.52 13.3675 13.5325 13.3687 13.5421 13.3767C13.5921 13.4179 13.6446 13.4592 13.6975 13.4983C13.7159 13.5117 13.7146 13.54 13.6946 13.5517C13.4455 13.6971 13.1867 13.8204 12.9142 13.9229C12.8963 13.9296 12.8888 13.9504 12.8971 13.9675C13.0471 14.2583 13.2188 14.5354 13.4075 14.7979C13.4155 14.8092 13.4296 14.8137 13.4425 14.81C14.2596 14.5571 15.0884 14.1758 15.9434 13.5479C15.9509 13.5425 15.9555 13.5342 15.9563 13.525C16.1646 11.3679 15.6071 9.49417 14.478 7.83333C14.4759 7.8275 14.4709 7.82333 14.4655 7.82125ZM9.3417 12.3883C8.84879 12.3883 8.44295 11.9358 8.44295 11.3804C8.44295 10.825 8.84087 10.3725 9.3417 10.3725C9.84629 10.3725 10.2484 10.8287 10.2405 11.3804C10.2405 11.9362 9.84212 12.3883 9.3417 12.3883ZM12.6646 12.3883C12.1721 12.3883 11.7659 11.9358 11.7659 11.3804C11.7659 10.825 12.1638 10.3725 12.6646 10.3725C13.1692 10.3725 13.5713 10.8287 13.5634 11.3804C13.5634 11.9362 13.1692 12.3883 12.6646 12.3883Z" fill="#6D81CE"/>
</g>
<defs>
<clipPath id="clip0_480_24878">
<rect width="10" height="10" fill="white" transform="translate(6 6)"/>
</clipPath>
</defs>
</svg>
