<svg width="15" height="15" viewBox="0 0 15 15" fill="none" xmlns="http://www.w3.org/2000/svg">
<g clip-path="url(#clip0_256_139)">
<path d="M8.75003 14.9995C8.25737 15.0011 7.76931 14.9047 7.31418 14.7161C6.85905 14.5275 6.44593 14.2504 6.09878 13.9008C5.39957 13.1955 5.00725 12.2426 5.00725 11.2495C5.00725 10.2564 5.39957 9.30352 6.09878 8.59828L8.75003 5.78766L11.4144 8.61078C12.1075 9.31752 12.4946 10.2686 12.4922 11.2585C12.4897 12.2483 12.0979 13.1975 11.4013 13.9008C11.0541 14.2504 10.641 14.5275 10.1859 14.7161C9.73075 14.9047 9.24269 15.0011 8.75003 14.9995ZM3.12503 7.49953C2.71452 7.50054 2.30788 7.42014 1.92865 7.26297C1.54942 7.1058 1.20511 6.875 0.915655 6.58391C0.333153 5.99611 0.00634766 5.20206 0.00634766 4.37453C0.00634766 3.547 0.333153 2.75295 0.915655 2.16516L3.12503 0.00390625L5.32941 2.16016C5.91439 2.74734 6.24327 3.54215 6.24421 4.371C6.24514 5.19985 5.91807 5.9954 5.3344 6.58391C5.04501 6.87508 4.70072 7.10594 4.32147 7.26311C3.94222 7.42029 3.53556 7.50064 3.12503 7.49953ZM12.5 6.24953C12.1716 6.25039 11.8463 6.18608 11.5429 6.06035C11.2395 5.93461 10.9641 5.74994 10.7325 5.51703C10.2664 5.04684 10.0049 4.41159 10.0049 3.74953C10.0049 3.08748 10.2664 2.45222 10.7325 1.98203L12.4888 0.0301562L14.2875 2.00266C14.7443 2.47478 14.998 3.10702 14.9942 3.76392C14.9905 4.42082 14.7296 5.05013 14.2675 5.51703C14.036 5.74994 13.7606 5.93461 13.4572 6.06035C13.1538 6.18608 12.8284 6.25039 12.5 6.24953Z" fill="#2CC8EF"/>
</g>
<defs>
<clipPath id="clip0_256_139">
<rect width="15" height="15" fill="white"/>
</clipPath>
</defs>
</svg>
