<svg width="29" height="29" viewBox="0 0 29 29" fill="none" xmlns="http://www.w3.org/2000/svg">
<g clip-path="url(#clip0_111_1073)">
<path d="M24.7487 17.6776L20.2922 22.1342L19.7389 21.2379C19.4856 20.8083 19.1899 20.4052 18.8562 20.0346C18.5436 19.7221 18.1197 19.5465 17.6777 19.5465C17.2356 19.5465 16.8117 19.7221 16.4992 20.0346C16.1866 20.3472 16.011 20.7711 16.011 21.2132C16.011 21.6552 16.1866 22.0791 16.4992 22.3917C16.8697 22.7254 17.2728 23.0211 17.7024 23.2744L18.5987 23.8277L14.1421 28.2842L5.3033 19.4454C4.83446 18.9765 4.57107 18.3407 4.57107 17.6776C4.57107 17.0146 4.83446 16.3787 5.3033 15.9099L6.64209 14.5711C6.1624 14.278 5.71382 13.9368 5.3033 13.5528C4.67818 12.9277 4.32699 12.0799 4.32699 11.1958C4.32699 10.3118 4.67818 9.46391 5.3033 8.83879C5.92842 8.21367 6.77627 7.86248 7.66032 7.86248C8.54438 7.86248 9.39222 8.21367 10.0173 8.83879C10.4014 9.24931 10.7425 9.69789 11.0356 10.1776L12.3744 8.83879C12.8432 8.36995 13.4791 8.10656 14.1421 8.10656C14.8052 8.10656 15.4411 8.36995 15.9099 8.83879L16.9541 9.88295C17.2475 9.40355 17.5887 8.95501 17.9723 8.54416C18.5974 7.91904 19.4453 7.56785 20.3293 7.56785C21.2134 7.56785 22.0612 7.91904 22.6863 8.54416C23.3115 9.16928 23.6627 10.0171 23.6627 10.9012C23.6627 11.7852 23.3115 12.6331 22.6863 13.2582C22.2755 13.6418 21.827 13.983 21.3476 14.2764L24.7487 17.6776ZM20.5733 19.4961L22.3917 17.6776L18.6099 13.8958L19.6016 13.366C20.2875 13.0173 20.9277 12.5853 21.5078 12.0797C21.8204 11.7671 21.996 11.3432 21.996 10.9012C21.996 10.4592 21.8204 10.0352 21.5078 9.72267C21.1953 9.41011 20.7713 9.23452 20.3293 9.23452C19.8873 9.23452 19.4634 9.41011 19.1508 9.72267C18.6452 10.3028 18.2132 10.943 17.8645 11.6289L17.3347 12.6206L14.7314 10.0173C14.5751 9.86102 14.3631 9.77322 14.1421 9.77322C13.9211 9.77322 13.7092 9.86102 13.5529 10.0173L10.6549 12.9153L10.1252 11.9235C9.77662 11.2375 9.34456 10.5973 8.83883 10.0173C8.52627 9.70474 8.10235 9.52915 7.66032 9.52915C7.2183 9.52915 6.79437 9.70474 6.48181 10.0173C6.16925 10.3299 5.99366 10.7538 5.99366 11.1958C5.99366 11.6378 6.16925 12.0618 6.48181 12.3743C7.06177 12.88 7.70204 13.3121 8.38805 13.6607L9.37977 14.1904L6.48181 17.0884C6.32553 17.2446 6.23773 17.4566 6.23773 17.6776C6.23773 17.8986 6.32553 18.1106 6.48181 18.2669L14.1421 25.9272L15.9606 24.1088C15.7349 23.9444 15.5211 23.7645 15.3206 23.5702C14.6955 22.9451 14.3443 22.0972 14.3443 21.2132C14.3443 20.3291 14.6955 19.4813 15.3206 18.8561C15.9458 18.231 16.7936 17.8798 17.6777 17.8798C18.5617 17.8798 19.4096 18.231 20.0347 18.8561C20.229 19.0566 20.409 19.2704 20.5733 19.4961Z" fill="white"/>
</g>
<defs>
<clipPath id="clip0_111_1073">
<rect width="20" height="20" fill="white" transform="translate(0 14.1421) rotate(-45)"/>
</clipPath>
</defs>
</svg>
