<svg width="80" height="80" viewBox="0 0 80 80" fill="none" xmlns="http://www.w3.org/2000/svg">
<rect width="80" height="80" rx="5" fill="#333333"/>
<path d="M21.7095 45V33.3636H28.4425V34.3182H22.772V38.6989H27.9141V39.6534H22.772V45H21.7095ZM31.8857 33.3636V45H30.8743V33.3636H31.8857ZM37.9538 45.1818C37.2 45.1818 36.5334 44.9905 35.9538 44.608C35.3781 44.2254 34.9273 43.697 34.6016 43.0227C34.2758 42.3447 34.1129 41.5625 34.1129 40.6761C34.1129 39.7822 34.2758 38.9962 34.6016 38.3182C34.9273 37.6364 35.3781 37.1061 35.9538 36.7273C36.5334 36.3447 37.2 36.1534 37.9538 36.1534C38.7076 36.1534 39.3724 36.3447 39.9482 36.7273C40.5239 37.1098 40.9747 37.6402 41.3004 38.3182C41.63 38.9962 41.7947 39.7822 41.7947 40.6761C41.7947 41.5625 41.6319 42.3447 41.3061 43.0227C40.9804 43.697 40.5277 44.2254 39.9482 44.608C39.3724 44.9905 38.7076 45.1818 37.9538 45.1818ZM37.9538 44.2557C38.5599 44.2557 39.0732 44.0928 39.4936 43.767C39.9141 43.4413 40.2322 43.0076 40.4482 42.4659C40.6679 41.9242 40.7777 41.3277 40.7777 40.6761C40.7777 40.0246 40.6679 39.4261 40.4482 38.8807C40.2322 38.3352 39.9141 37.8977 39.4936 37.5682C39.0732 37.2386 38.5599 37.0739 37.9538 37.0739C37.3516 37.0739 36.8383 37.2386 36.4141 37.5682C35.9936 37.8977 35.6735 38.3352 35.4538 38.8807C35.2379 39.4261 35.13 40.0246 35.13 40.6761C35.13 41.3277 35.2379 41.9242 35.4538 42.4659C35.6735 43.0076 35.9936 43.4413 36.4141 43.767C36.8345 44.0928 37.3478 44.2557 37.9538 44.2557ZM47.407 45.1818C46.6532 45.1818 45.9865 44.9905 45.407 44.608C44.8312 44.2254 44.3804 43.697 44.0547 43.0227C43.7289 42.3447 43.5661 41.5625 43.5661 40.6761C43.5661 39.7822 43.7289 38.9962 44.0547 38.3182C44.3804 37.6364 44.8312 37.1061 45.407 36.7273C45.9865 36.3447 46.6532 36.1534 47.407 36.1534C48.1607 36.1534 48.8255 36.3447 49.4013 36.7273C49.977 37.1098 50.4278 37.6402 50.7536 38.3182C51.0831 38.9962 51.2479 39.7822 51.2479 40.6761C51.2479 41.5625 51.085 42.3447 50.7592 43.0227C50.4335 43.697 49.9808 44.2254 49.4013 44.608C48.8255 44.9905 48.1607 45.1818 47.407 45.1818ZM47.407 44.2557C48.013 44.2557 48.5263 44.0928 48.9467 43.767C49.3672 43.4413 49.6854 43.0076 49.9013 42.4659C50.121 41.9242 50.2308 41.3277 50.2308 40.6761C50.2308 40.0246 50.121 39.4261 49.9013 38.8807C49.6854 38.3352 49.3672 37.8977 48.9467 37.5682C48.5263 37.2386 48.013 37.0739 47.407 37.0739C46.8047 37.0739 46.2914 37.2386 45.8672 37.5682C45.4467 37.8977 45.1267 38.3352 44.907 38.8807C44.6911 39.4261 44.5831 40.0246 44.5831 40.6761C44.5831 41.3277 44.6911 41.9242 44.907 42.4659C45.1267 43.0076 45.4467 43.4413 45.8672 43.767C46.2876 44.0928 46.8009 44.2557 47.407 44.2557ZM53.468 45V36.2727H54.451V37.6136H54.5249C54.6991 37.1742 55.0021 36.8201 55.4339 36.5511C55.8696 36.2784 56.362 36.142 56.9112 36.142C56.9946 36.142 57.0874 36.1439 57.1896 36.1477C57.2919 36.1515 57.3771 36.1553 57.4453 36.1591V37.1875C57.3999 37.1799 57.3203 37.1686 57.2067 37.1534C57.093 37.1383 56.9699 37.1307 56.8374 37.1307C56.3828 37.1307 55.9775 37.2273 55.6214 37.4205C55.2692 37.6098 54.9908 37.8731 54.7862 38.2102C54.5817 38.5473 54.4794 38.9318 54.4794 39.3636V45H53.468Z" fill="white" fill-opacity="0.5"/>
<path d="M20.1641 48.1818H57.8374V49.2727H20.1641V48.1818Z" fill="white" fill-opacity="0.5"/>
</svg>
