<svg width="21" height="20" viewBox="0 0 21 20" fill="none" xmlns="http://www.w3.org/2000/svg">
<g clip-path="url(#clip0_111_1066)">
<path d="M14.7256 0H5.55892C4.34382 0.00154355 3.17893 0.484925 2.31972 1.34413C1.46051 2.20334 0.977129 3.36823 0.975586 4.58333V17.06C0.976213 17.6436 1.15192 18.2137 1.47999 18.6964C1.80806 19.1791 2.2734 19.5522 2.81584 19.7676C3.35827 19.983 3.95285 20.0307 4.52269 19.9046C5.09253 19.7784 5.61142 19.4842 6.01225 19.06L10.1056 14.7267L14.2831 19.1017C14.6852 19.5227 15.2041 19.8137 15.773 19.9373C16.3419 20.0609 16.9348 20.0114 17.4753 19.7953C18.0159 19.5791 18.4794 19.2061 18.8061 18.7242C19.1329 18.2424 19.308 17.6738 19.3089 17.0917V4.58333C19.3074 3.36823 18.824 2.20334 17.9648 1.34413C17.1056 0.484925 15.9407 0.00154355 14.7256 0V0ZM16.8089 17.0917C16.8088 17.1748 16.7838 17.2559 16.7371 17.3247C16.6905 17.3935 16.6244 17.4467 16.5472 17.4777C16.4701 17.5086 16.3855 17.5157 16.3043 17.4981C16.223 17.4806 16.1489 17.4392 16.0914 17.3792L11.0081 12.0533C10.891 11.9307 10.7501 11.8332 10.5941 11.7667C10.4381 11.7002 10.2702 11.6662 10.1006 11.6667C9.93106 11.6672 9.76341 11.7022 9.60783 11.7695C9.45225 11.8368 9.31199 11.9351 9.19559 12.0583L4.19559 17.3458C4.13979 17.4089 4.06549 17.4526 3.98333 17.4709C3.90116 17.4891 3.81532 17.481 3.73809 17.4475C3.65852 17.4197 3.59003 17.3669 3.54276 17.2972C3.49548 17.2274 3.47193 17.1442 3.47559 17.06V4.58333C3.47559 4.0308 3.69508 3.50089 4.08578 3.11019C4.47648 2.71949 5.00639 2.5 5.55892 2.5H14.7256C15.2781 2.5 15.808 2.71949 16.1987 3.11019C16.5894 3.50089 16.8089 4.0308 16.8089 4.58333V17.0917Z" fill="white"/>
</g>
<defs>
<clipPath id="clip0_111_1066">
<rect width="20" height="20" fill="white" transform="translate(0.142578)"/>
</clipPath>
</defs>
</svg>
