<svg width="7" height="7" viewBox="0 0 7 7" fill="none" xmlns="http://www.w3.org/2000/svg">
<path d="M0 5.25C4.76837e-07 5.48206 0.0921874 5.70462 0.256282 5.86872C0.420376 6.03281 0.642936 6.125 0.875 6.125C1.10706 6.125 1.32962 6.03281 1.49372 5.86872C1.65781 5.70462 1.75 5.48206 1.75 5.25V4.95833C1.75 4.88098 1.78073 4.80679 1.83543 4.75209C1.89013 4.6974 1.96431 4.66667 2.04167 4.66667H2.33333V5.54167C2.3338 5.9283 2.48759 6.29896 2.76098 6.57235C3.03437 6.84574 3.40504 6.99954 3.79167 7H5.54167C5.9283 6.99954 6.29896 6.84574 6.57235 6.57235C6.84574 6.29896 6.99954 5.9283 7 5.54167V3.20833H2.33333V4.08333H2.04167C1.8096 4.08333 1.58704 4.17552 1.42295 4.33961C1.25885 4.50371 1.16667 4.72627 1.16667 4.95833V5.25C1.16667 5.32735 1.13594 5.40154 1.08124 5.45624C1.02654 5.51094 0.952355 5.54167 0.875 5.54167C0.797646 5.54167 0.723459 5.51094 0.66876 5.45624C0.614062 5.40154 0.583333 5.32735 0.583333 5.25V2.33333C0.738043 2.33333 0.886416 2.27188 0.995812 2.16248C1.10521 2.05308 1.16667 1.90471 1.16667 1.75V0.99575L1.66454 0.497875C1.71767 0.442866 1.74707 0.36919 1.74641 0.292716C1.74574 0.216242 1.71507 0.143089 1.66099 0.0890112C1.60691 0.0349339 1.53376 0.00425961 1.45728 0.00359507C1.38081 0.00293053 1.30713 0.0323289 1.25212 0.0854583L0.512458 0.824833C0.189899 1.14563 0.00592232 1.58007 0 2.03496C4.76837e-07 2.03729 0 5.25 0 5.25ZM2.33333 1.45833C2.3338 1.0717 2.48759 0.701038 2.76098 0.427647C3.03437 0.154257 3.40504 0.000463125 3.79167 0L5.54167 0C5.9283 0.000463125 6.29896 0.154257 6.57235 0.427647C6.84574 0.701038 6.99954 1.0717 7 1.45833L7 2.625H2.33333V1.45833Z" fill="#EE4E7A"/>
</svg>
