<svg width="6" height="6" viewBox="0 0 6 6" fill="none" xmlns="http://www.w3.org/2000/svg">
<path d="M6 1.77638V0H5.646V0.843724H4.57633C4.57633 0.377727 4.19833 0 3.732 0H2.111V0.353745H2.82267V1.42231H1.77767V0H1.42367V0.711153H0.354V0H0V2.32965V2.46555H0.887667V3.53411H0V3.88786H1.244H1.44567V4.84317V4.93444V5.28818V5.33948V5.64559H0.354V5.28818H1.19833V4.93444H0.354V4.57703H1.27467V4.22328H0.354H0V5.99967H0.354H1.44567H1.60067H1.8V4.57703H2.823V4.96375H3.177V4.57703H4.426V5.99967H4.78V5.28851H5.46667C5.56533 5.28851 5.64567 5.36846 5.64567 5.46738V6H6V4.57736C6 4.38184 5.84133 4.22362 5.646 4.22362H4.78033H4.42633H1.8V3.88519C2.22167 3.85655 2.563 3.58375 2.63467 3.17704H3.53467V3.88819H3.564H6V3.53445H5.28833V2.46555H6V2.11181H4.57633V1.19747H5.646V1.77638H6ZM4.78033 4.57736H5.467C5.56567 4.57736 5.646 4.6573 5.646 4.75623C5.646 4.85483 5.566 4.9351 5.467 4.9351H4.78033V4.57736ZM3.177 0.876034C3.177 0.587576 3.411 0.353745 3.69967 0.353745C3.98833 0.353745 4.22233 0.587576 4.22233 0.876034V0.90035C4.22233 1.18881 3.98833 1.42264 3.69967 1.42264C3.411 1.42264 3.177 1.18881 3.177 0.90035V0.876034ZM1.716 3.53278H1.244V3.53445H1.24167V2.46555H1.38233H1.73933C1.985 2.46555 2.283 2.60545 2.283 3.01049C2.28333 3.34492 2.03767 3.53278 1.716 3.53278ZM4.934 3.53445H3.889V2.11181H3.535V2.82296H2.63333C2.55533 2.36096 2.19167 2.11181 1.711 2.11181H1.38267H1.244H0.354V1.06523H1.42333V1.77638H1.77733H4.22167V2.39494V2.46522H4.93333V3.53445H4.934Z" fill="#FF9B04"/>
<path d="M2.26285 5.34573H2.14818V5.21582H2.05151V5.56457H2.14818V5.43067H2.26285V5.56457H2.35951V5.21582H2.26285V5.34573Z" fill="#FF9B04"/>
<path d="M2.61919 5.20801C2.52086 5.20801 2.43652 5.28229 2.43652 5.39254C2.43652 5.50379 2.51186 5.57208 2.61919 5.57208C2.72252 5.57208 2.80086 5.50013 2.80086 5.39254C2.80086 5.28095 2.71886 5.20801 2.61919 5.20801ZM2.62119 5.48647C2.57252 5.48647 2.53652 5.45316 2.53652 5.39154C2.53652 5.32692 2.57452 5.29361 2.61786 5.29361C2.66319 5.29361 2.70086 5.32792 2.70086 5.39154C2.70052 5.45216 2.66752 5.48647 2.62119 5.48647Z" fill="#FF9B04"/>
<path d="M3.26318 5.21582V5.56457H3.48652V5.47963H3.35952V5.21582H3.26318Z" fill="#FF9B04"/>
<path d="M3.79071 5.29976V5.21582H3.56604V5.56457H3.79604V5.48063H3.66271V5.42767H3.77337V5.34872H3.66271V5.29976H3.79071Z" fill="#FF9B04"/>
<path d="M4.14082 5.31941C4.14082 5.25946 4.09248 5.21582 4.00948 5.21582H3.87915V5.56457H3.97582V5.42567H3.98248L4.06915 5.56457H4.17682V5.5619L4.07615 5.41634C4.11448 5.40169 4.14082 5.36804 4.14082 5.31941ZM4.00482 5.36571H3.97548V5.29243H4.00415C4.02782 5.29243 4.04315 5.30675 4.04315 5.32907C4.04315 5.35472 4.02615 5.36571 4.00482 5.36571Z" fill="#FF9B04"/>
<path d="M2.2056 5.85549H2.29427V5.93443C2.2806 5.95042 2.25427 5.95808 2.2216 5.95808C2.14994 5.95808 2.09927 5.90711 2.09927 5.83017C2.09927 5.7389 2.15627 5.6956 2.21827 5.6956C2.2646 5.6956 2.29894 5.71559 2.3146 5.72858L2.32627 5.68827C2.30627 5.67362 2.26427 5.6543 2.21927 5.6543C2.1176 5.6543 2.05127 5.73157 2.05127 5.8325C2.05127 5.91944 2.1156 5.99971 2.2186 5.99971C2.27094 5.99971 2.30894 5.98173 2.34027 5.95242V5.81585H2.20494V5.85549H2.2056Z" fill="#FF9B04"/>
<path d="M2.8423 5.66211H2.79663V5.99287H2.98363V5.9529H2.8423V5.66211Z" fill="#FF9B04"/>
<path d="M3.11488 5.66211H3.06921V5.99287H3.25621V5.9529H3.11488V5.66211Z" fill="#FF9B04"/>
<path d="M3.38792 5.84065H3.51492V5.80068H3.38792V5.70208H3.52959V5.66211H3.34192V5.99287H3.53459V5.9529H3.38792V5.84065Z" fill="#FF9B04"/>
<path d="M3.83594 5.75837C3.83594 5.69675 3.79594 5.66211 3.72594 5.66211H3.63428V5.99287H3.68028V5.85564H3.70661L3.80861 5.99287H3.86028V5.98654L3.75661 5.85131C3.80794 5.84265 3.83594 5.80401 3.83594 5.75837ZM3.67994 5.81766V5.70042H3.72361C3.76261 5.70042 3.78861 5.7184 3.78861 5.75804C3.78861 5.80068 3.76394 5.818 3.72828 5.818H3.67994V5.81766Z" fill="#FF9B04"/>
<path d="M4.03955 5.80134H4.03588L3.94788 5.66211H3.89722L4.01388 5.84564V5.99287H4.05988V5.84564L4.17655 5.66211H4.12588L4.03955 5.80134Z" fill="#FF9B04"/>
<path d="M3.18593 5.39336C3.18593 5.27844 3.10126 5.21582 2.99793 5.21582H2.87793V5.29776H2.9746H2.9786H3.00293C3.04126 5.29776 3.0886 5.32607 3.0886 5.39203C3.0886 5.44599 3.05026 5.48229 3.00093 5.48229H2.97893H2.97493H2.87826V5.56457H2.99893C3.10393 5.56457 3.18593 5.49562 3.18593 5.39336Z" fill="#FF9B04"/>
<path d="M2.55623 5.65234L2.40723 5.99276H2.45589L2.55889 5.74461H2.56223L2.66689 5.99276H2.71556L2.56556 5.65234H2.55623Z" fill="#FF9B04"/>
</svg>
