<svg width="10" height="10" viewBox="0 0 10 10" fill="none" xmlns="http://www.w3.org/2000/svg">
<circle cx="5" cy="5" r="5" fill="#CC65EC"/>
<g clip-path="url(#clip0_351_1125)">
<path d="M7 4.18426V3H6.764V3.56248H6.05089C6.05089 3.25182 5.79889 3 5.488 3H4.40733V3.23583H4.88178V3.9482H4.18511V3H3.94911V3.4741H3.236V3H3V4.5531V4.6437H3.59178V5.35608H3V5.59191H3.82933H3.96378V6.22878V6.28962V6.52545V6.55965V6.76373H3.236V6.52545H3.79889V6.28962H3.236V6.05135H3.84978V5.81552H3.236H3V6.99978H3.236H3.96378H4.06711H4.2V6.05135H4.882V6.30917H5.118V6.05135H5.95067V6.99978H6.18667V6.52568H6.64444C6.71022 6.52568 6.76378 6.57897 6.76378 6.64492V7H7V6.05157C7 5.92122 6.89422 5.81574 6.764 5.81574H6.18689H5.95089H4.2V5.59013C4.48111 5.57103 4.70867 5.38916 4.75644 5.11803H5.35644V5.59213H5.376H7V5.3563H6.52556V4.6437H7V4.40787H6.05089V3.79831H6.764V4.18426H7ZM6.18689 6.05157H6.64467C6.71044 6.05157 6.764 6.10487 6.764 6.17082C6.764 6.23655 6.71067 6.29007 6.64467 6.29007H6.18689V6.05157ZM5.118 3.58402C5.118 3.39172 5.274 3.23583 5.46644 3.23583C5.65889 3.23583 5.81489 3.39172 5.81489 3.58402V3.60023C5.81489 3.79254 5.65889 3.94843 5.46644 3.94843C5.274 3.94843 5.118 3.79254 5.118 3.60023V3.58402ZM4.144 5.35519H3.82933V5.3563H3.82778V4.6437H3.92156H4.15956C4.32333 4.6437 4.522 4.73697 4.522 5.00699C4.52222 5.22994 4.35844 5.35519 4.144 5.35519ZM6.28933 5.3563H5.59267V4.40787H5.35667V4.88197H4.75556C4.70356 4.57397 4.46111 4.40787 4.14067 4.40787H3.92178H3.82933H3.236V3.71015H3.94889V4.18426H4.18489H5.81444V4.59662V4.64348H6.28889V5.3563H6.28933Z" fill="black"/>
<path d="M4.50856 6.56317H4.43212V6.47656H4.36768V6.70906H4.43212V6.61979H4.50856V6.70906H4.57301V6.47656H4.50856V6.56317Z" fill="black"/>
<path d="M4.74617 6.47168C4.68061 6.47168 4.62439 6.5212 4.62439 6.5947C4.62439 6.66887 4.67461 6.71439 4.74617 6.71439C4.81506 6.71439 4.86728 6.66643 4.86728 6.5947C4.86728 6.52031 4.81261 6.47168 4.74617 6.47168ZM4.7475 6.65732C4.71506 6.65732 4.69106 6.63512 4.69106 6.59404C4.69106 6.55096 4.71639 6.52875 4.74528 6.52875C4.7755 6.52875 4.80061 6.55162 4.80061 6.59404C4.80039 6.63445 4.77839 6.65732 4.7475 6.65732Z" fill="black"/>
<path d="M5.17554 6.47656V6.70906H5.32443V6.65244H5.23976V6.47656H5.17554Z" fill="black"/>
<path d="M5.52722 6.53252V6.47656H5.37744V6.70906H5.53077V6.6531H5.44189V6.61779H5.51566V6.56517H5.44189V6.53252H5.52722Z" fill="black"/>
<path d="M5.76063 6.54562C5.76063 6.50565 5.7284 6.47656 5.67307 6.47656H5.58618V6.70906H5.65063V6.61646H5.65507L5.71285 6.70906H5.78463V6.70728L5.71752 6.61024C5.74307 6.60047 5.76063 6.57804 5.76063 6.54562ZM5.66996 6.57649H5.6504V6.52764H5.66951C5.68529 6.52764 5.69552 6.53719 5.69552 6.55206C5.69552 6.56916 5.68418 6.57649 5.66996 6.57649Z" fill="black"/>
<path d="M4.47044 6.90366H4.52955V6.95629C4.52044 6.96694 4.50289 6.97205 4.48111 6.97205C4.43333 6.97205 4.39955 6.93808 4.39955 6.88678C4.39955 6.82593 4.43755 6.79707 4.47889 6.79707C4.50978 6.79707 4.53266 6.81039 4.54311 6.81905L4.55089 6.79218C4.53755 6.78241 4.50955 6.76953 4.47955 6.76953C4.41178 6.76953 4.36755 6.82105 4.36755 6.88833C4.36755 6.94629 4.41044 6.99981 4.47911 6.99981C4.514 6.99981 4.53933 6.98782 4.56022 6.96828V6.87723H4.47V6.90366H4.47044Z" fill="black"/>
<path d="M4.89482 6.77441H4.86438V6.99492H4.98905V6.96827H4.89482V6.77441Z" fill="black"/>
<path d="M5.07659 6.77441H5.04614V6.99492H5.17081V6.96827H5.07659V6.77441Z" fill="black"/>
<path d="M5.25869 6.89344H5.34336V6.86679H5.25869V6.80106H5.35314V6.77441H5.22803V6.99492H5.35647V6.96827H5.25869V6.89344Z" fill="black"/>
<path d="M5.5573 6.83859C5.5573 6.79751 5.53063 6.77441 5.48396 6.77441H5.42285V6.99492H5.45352V6.90343H5.47107L5.53907 6.99492H5.57352V6.9907L5.50441 6.90055C5.53863 6.89477 5.5573 6.86901 5.5573 6.83859ZM5.4533 6.87812V6.79995H5.48241C5.50841 6.79995 5.52574 6.81194 5.52574 6.83837C5.52574 6.86679 5.5093 6.87834 5.48552 6.87834H5.4533V6.87812Z" fill="black"/>
<path d="M5.69303 6.86724H5.69059L5.63192 6.77441H5.59814L5.67592 6.89677V6.99492H5.70659V6.89677L5.78437 6.77441H5.75059L5.69303 6.86724Z" fill="black"/>
<path d="M5.12403 6.59492C5.12403 6.51831 5.06759 6.47656 4.9987 6.47656H4.9187V6.53119H4.98315H4.98581H5.00203C5.02759 6.53119 5.05915 6.55006 5.05915 6.59403C5.05915 6.63001 5.03359 6.65421 5.0007 6.65421H4.98603H4.98337H4.91892V6.70906H4.99937C5.06937 6.70906 5.12403 6.66309 5.12403 6.59492Z" fill="black"/>
<path d="M4.70419 6.76758L4.60486 6.99453H4.6373L4.70597 6.82909H4.70819L4.77797 6.99453H4.81041L4.71041 6.76758H4.70419Z" fill="black"/>
</g>
<defs>
<clipPath id="clip0_351_1125">
<rect width="4" height="4" fill="white" transform="translate(3 3)"/>
</clipPath>
</defs>
</svg>
