<svg width="7" height="7" viewBox="0 0 7 7" fill="none" xmlns="http://www.w3.org/2000/svg">
<path d="M1.1692 2.29872C1.61948 1.73682 2.25557 1.35413 2.96295 1.21955C2.86716 1.11529 2.80379 0.985389 2.78059 0.845715C2.75739 0.706041 2.77536 0.562634 2.8323 0.433001C2.88924 0.303367 2.98269 0.193115 3.10124 0.115704C3.21979 0.0382921 3.35832 -0.00292969 3.49991 -0.00292969C3.64149 -0.00292969 3.78002 0.0382921 3.89857 0.115704C4.01712 0.193115 4.11057 0.303367 4.16751 0.433001C4.22445 0.562634 4.24242 0.706041 4.21922 0.845715C4.19602 0.985389 4.13265 1.11529 4.03686 1.21955C4.74424 1.35413 5.38033 1.73682 5.83061 2.29872C5.45022 2.5828 5.14454 2.95505 4.93986 3.38343C4.77913 3.15002 4.56406 2.95917 4.31319 2.82733C4.06232 2.69549 3.78316 2.6266 3.49976 2.6266C3.21636 2.6266 2.9372 2.69549 2.68633 2.82733C2.43546 2.95917 2.22039 3.15002 2.05966 3.38343C1.85518 2.955 1.54958 2.58273 1.1692 2.29872V2.29872ZM6.13424 6.41676H0.865572C0.788217 6.418 0.714522 6.44992 0.660699 6.50549C0.606876 6.56106 0.577334 6.63574 0.578572 6.7131C0.57981 6.79045 0.611726 6.86414 0.667299 6.91797C0.722872 6.97179 0.797551 7.00133 0.874905 7.0001H6.12491C6.20226 7.00133 6.27694 6.97179 6.33251 6.91797C6.38809 6.86414 6.42 6.79045 6.42124 6.7131C6.42248 6.63574 6.39293 6.56106 6.33911 6.50549C6.28529 6.44992 6.21159 6.418 6.13424 6.41676V6.41676ZM6.29553 5.83343C6.29553 5.83343 6.99991 3.28193 6.99991 3.06259C7.00199 3.00458 6.99209 2.94676 6.97084 2.89274C6.94959 2.83872 6.91744 2.78965 6.87639 2.74861C6.83535 2.70756 6.78628 2.67541 6.73226 2.65416C6.67824 2.63291 6.62042 2.62301 6.56241 2.62509C5.97907 2.62509 5.24991 3.74947 5.24991 4.37509C5.24991 4.45245 5.21918 4.52664 5.16448 4.58133C5.10978 4.63603 5.03559 4.66676 4.95824 4.66676C4.88088 4.66676 4.8067 4.63603 4.752 4.58133C4.6973 4.52664 4.66657 4.45245 4.66657 4.37509C4.66657 4.06568 4.54366 3.76893 4.32486 3.55014C4.10607 3.33134 3.80932 3.20843 3.49991 3.20843C3.19049 3.20843 2.89374 3.33134 2.67495 3.55014C2.45616 3.76893 2.33324 4.06568 2.33324 4.37509C2.33324 4.45245 2.30251 4.52664 2.24781 4.58133C2.19311 4.63603 2.11893 4.66676 2.04157 4.66676C1.96422 4.66676 1.89003 4.63603 1.83533 4.58133C1.78063 4.52664 1.74991 4.45245 1.74991 4.37509C1.74991 3.74947 1.02074 2.62509 0.437405 2.62509C0.379392 2.62301 0.321572 2.63291 0.267551 2.65416C0.21353 2.67541 0.164466 2.70756 0.123418 2.74861C0.0823699 2.78965 0.0502185 2.83872 0.0289683 2.89274C0.00771812 2.94676 -0.00217517 3.00458 -9.4688e-05 3.06259C-9.4688e-05 3.28193 0.70428 5.83343 0.70428 5.83343H6.29553Z" fill="#FFC700"/>
</svg>
