<svg width="10" height="10" viewBox="0 0 10 10" fill="none" xmlns="http://www.w3.org/2000/svg">
<g clip-path="url(#clip0_145_97)">
<path d="M9.58333 4.58333H7.88333C7.85087 4.35377 7.79085 4.12895 7.70458 3.91375L9.17417 3.06208C9.22328 3.03565 9.26659 2.99963 9.30153 2.95615C9.33646 2.91267 9.36231 2.86262 9.37754 2.80897C9.39277 2.75531 9.39708 2.69914 9.3902 2.64379C9.38332 2.58844 9.36541 2.53504 9.3375 2.48674C9.3096 2.43845 9.27229 2.39625 9.22778 2.36264C9.18326 2.32903 9.13246 2.3047 9.07837 2.2911C9.02428 2.27749 8.96801 2.27488 8.91289 2.28342C8.85777 2.29197 8.80493 2.31149 8.7575 2.34083L7.28667 3.19375C7.14606 3.01613 6.98541 2.85534 6.80792 2.71458L7.66042 1.24333C7.71175 1.14794 7.72392 1.0363 7.69433 0.932088C7.66475 0.827876 7.59574 0.739283 7.50193 0.685093C7.40813 0.630903 7.29691 0.615377 7.19185 0.641806C7.0868 0.668235 6.99616 0.734541 6.93917 0.826667L6.08625 2.29542C5.87108 2.20905 5.64625 2.14903 5.41667 2.11667V0.416667C5.41667 0.30616 5.37277 0.200179 5.29463 0.122039C5.21649 0.0438987 5.11051 0 5 0C4.88949 0 4.78351 0.0438987 4.70537 0.122039C4.62723 0.200179 4.58333 0.30616 4.58333 0.416667V2.11667C4.35375 2.14903 4.12892 2.20905 3.91375 2.29542L3.06208 0.825833C3.00509 0.733708 2.91445 0.667401 2.8094 0.640972C2.70434 0.614543 2.59312 0.63007 2.49932 0.68426C2.40551 0.73845 2.3365 0.827042 2.30692 0.931255C2.27733 1.03547 2.2895 1.14711 2.34083 1.2425L3.19333 2.71458C3.01584 2.85534 2.85519 3.01613 2.71458 3.19375L1.24375 2.34083C1.19632 2.31149 1.14348 2.29197 1.08836 2.28342C1.03324 2.27488 0.976972 2.27749 0.922882 2.2911C0.868792 2.3047 0.817985 2.32903 0.773471 2.36264C0.728958 2.39625 0.691646 2.43845 0.663745 2.48674C0.635845 2.53504 0.617925 2.58844 0.611048 2.64379C0.60417 2.69914 0.608475 2.75531 0.623708 2.80897C0.63894 2.86262 0.66479 2.91267 0.699725 2.95615C0.73466 2.99963 0.777968 3.03565 0.827083 3.06208L2.29542 3.91375C2.20914 4.12895 2.14913 4.35377 2.11667 4.58333H0.416667C0.30616 4.58333 0.200179 4.62723 0.122039 4.70537C0.0438987 4.78351 0 4.88949 0 5C0 5.11051 0.0438987 5.21649 0.122039 5.29463C0.200179 5.37277 0.30616 5.41667 0.416667 5.41667H2.11667C2.14913 5.64623 2.20914 5.87105 2.29542 6.08625L0.825833 6.93792C0.776718 6.96435 0.73341 7.00037 0.698475 7.04385C0.66354 7.08733 0.63769 7.13738 0.622458 7.19103C0.607225 7.24469 0.60292 7.30086 0.609798 7.35621C0.616675 7.41156 0.634595 7.46496 0.662495 7.51326C0.690396 7.56155 0.727708 7.60375 0.772221 7.63736C0.816735 7.67097 0.867542 7.6953 0.921632 7.7089C0.975722 7.72251 1.03199 7.72512 1.08711 7.71658C1.14223 7.70803 1.19507 7.68851 1.2425 7.65917L2.71333 6.80625C2.85394 6.98387 3.01459 7.14466 3.19208 7.28542L2.34083 8.75667C2.2895 8.85206 2.27733 8.9637 2.30692 9.06791C2.3365 9.17212 2.40551 9.26072 2.49932 9.31491C2.59312 9.3691 2.70434 9.38462 2.8094 9.35819C2.91445 9.33177 3.00509 9.26546 3.06208 9.17333L3.91375 7.70375C4.12894 7.79022 4.35375 7.85051 4.58333 7.88333V9.58333C4.58333 9.69384 4.62723 9.79982 4.70537 9.87796C4.78351 9.9561 4.88949 10 5 10C5.11051 10 5.21649 9.9561 5.29463 9.87796C5.37277 9.79982 5.41667 9.69384 5.41667 9.58333V7.88333C5.64621 7.85078 5.87102 7.79077 6.08625 7.70458L6.93792 9.17417C6.99491 9.26629 7.08555 9.3326 7.1906 9.35903C7.29566 9.38546 7.40688 9.36993 7.50068 9.31574C7.59449 9.26155 7.6635 9.17296 7.69308 9.06874C7.72267 8.96453 7.7105 8.85289 7.65917 8.7575L6.80667 7.28625C6.98416 7.14549 7.14481 6.9847 7.28542 6.80708L8.75625 7.66C8.80368 7.68934 8.85652 7.70887 8.91164 7.71741C8.96676 7.72595 9.02303 7.72335 9.07712 7.70974C9.13121 7.69613 9.18202 7.6718 9.22653 7.6382C9.27104 7.60459 9.30835 7.56239 9.33625 7.51409C9.36415 7.46579 9.38207 7.41239 9.38895 7.35704C9.39583 7.30169 9.39152 7.24552 9.37629 7.19187C9.36106 7.13821 9.33521 7.08816 9.30027 7.04468C9.26534 7.0012 9.22203 6.96518 9.17292 6.93875L7.70333 6.08708C7.7901 5.87167 7.85053 5.64657 7.88333 5.41667H9.58333C9.69384 5.41667 9.79982 5.37277 9.87796 5.29463C9.9561 5.21649 10 5.11051 10 5C10 4.88949 9.9561 4.78351 9.87796 4.70537C9.79982 4.62723 9.69384 4.58333 9.58333 4.58333Z" fill="white"/>
</g>
<defs>
<clipPath id="clip0_145_97">
<rect width="10" height="10" fill="white"/>
</clipPath>
</defs>
</svg>
