<svg width="20" height="20" viewBox="0 0 20 20" fill="none" xmlns="http://www.w3.org/2000/svg">
<path d="M18.75 8.75H1.25C0.559648 8.75 0 9.30965 0 10C0 10.6904 0.559648 11.25 1.25 11.25H18.75C19.4404 11.25 20 10.6904 20 10C20 9.30965 19.4404 8.75 18.75 8.75Z" fill="white"/>
<path d="M1.25 5.41699H18.75C19.4404 5.41699 20 4.85734 20 4.16699C20 3.47664 19.4404 2.91699 18.75 2.91699H1.25C0.559648 2.91699 0 3.47664 0 4.16699C0 4.85734 0.559648 5.41699 1.25 5.41699Z" fill="white"/>
<path d="M18.75 14.584H1.25C0.559648 14.584 0 15.1436 0 15.834C0 16.5243 0.559648 17.084 1.25 17.084H18.75C19.4404 17.084 20 16.5243 20 15.834C20 15.1436 19.4404 14.584 18.75 14.584Z" fill="white"/>
</svg>
