<svg width="21" height="20" viewBox="0 0 21 20" fill="none" xmlns="http://www.w3.org/2000/svg">
<g clip-path="url(#clip0_111_1075)">
<path d="M5.97591 0H3.47591C1.63758 0 0.142578 1.495 0.142578 3.33333V5.83333C0.142578 7.67167 1.63758 9.16667 3.47591 9.16667H5.97591C7.81424 9.16667 9.30924 7.67167 9.30924 5.83333V3.33333C9.30924 1.495 7.81424 0 5.97591 0ZM7.64258 5.83333C7.64258 6.7525 6.89508 7.5 5.97591 7.5H3.47591C2.55674 7.5 1.80924 6.7525 1.80924 5.83333V3.33333C1.80924 2.41417 2.55674 1.66667 3.47591 1.66667H5.97591C6.89508 1.66667 7.64258 2.41417 7.64258 3.33333V5.83333ZM5.97591 4.16667V5C5.97591 5.46 5.60258 5.83333 5.14258 5.83333H4.30924C3.84924 5.83333 3.47591 5.46 3.47591 5V4.16667C3.47591 3.70667 3.84924 3.33333 4.30924 3.33333H5.14258C5.60258 3.33333 5.97591 3.70667 5.97591 4.16667ZM14.3092 9.16667H16.8092C18.6476 9.16667 20.1426 7.67167 20.1426 5.83333V3.33333C20.1426 1.495 18.6476 0 16.8092 0H14.3092C12.4709 0 10.9759 1.495 10.9759 3.33333V5.83333C10.9759 7.67167 12.4709 9.16667 14.3092 9.16667ZM12.6426 3.33333C12.6426 2.41417 13.3901 1.66667 14.3092 1.66667H16.8092C17.7284 1.66667 18.4759 2.41417 18.4759 3.33333V5.83333C18.4759 6.7525 17.7284 7.5 16.8092 7.5H14.3092C13.3901 7.5 12.6426 6.7525 12.6426 5.83333V3.33333ZM14.3092 5V4.16667C14.3092 3.70667 14.6826 3.33333 15.1426 3.33333H15.9759C16.4359 3.33333 16.8092 3.70667 16.8092 4.16667V5C16.8092 5.46 16.4359 5.83333 15.9759 5.83333H15.1426C14.6826 5.83333 14.3092 5.46 14.3092 5ZM5.97591 10.8333H3.47591C1.63758 10.8333 0.142578 12.3283 0.142578 14.1667V16.6667C0.142578 18.505 1.63758 20 3.47591 20H5.97591C7.81424 20 9.30924 18.505 9.30924 16.6667V14.1667C9.30924 12.3283 7.81424 10.8333 5.97591 10.8333ZM7.64258 16.6667C7.64258 17.5858 6.89508 18.3333 5.97591 18.3333H3.47591C2.55674 18.3333 1.80924 17.5858 1.80924 16.6667V14.1667C1.80924 13.2475 2.55674 12.5 3.47591 12.5H5.97591C6.89508 12.5 7.64258 13.2475 7.64258 14.1667V16.6667ZM5.97591 15V15.8333C5.97591 16.2933 5.60258 16.6667 5.14258 16.6667H4.30924C3.84924 16.6667 3.47591 16.2933 3.47591 15.8333V15C3.47591 14.54 3.84924 14.1667 4.30924 14.1667H5.14258C5.60258 14.1667 5.97591 14.54 5.97591 15ZM14.3092 12.0833V12.9167C14.3092 13.6067 13.7492 14.1667 13.0592 14.1667H12.2259C11.5359 14.1667 10.9759 13.6067 10.9759 12.9167V12.0833C10.9759 11.3933 11.5359 10.8333 12.2259 10.8333H13.0592C13.7492 10.8333 14.3092 11.3933 14.3092 12.0833ZM16.8092 15.4167C16.8092 16.1067 16.2492 16.6667 15.5592 16.6667C14.8692 16.6667 14.3092 16.1067 14.3092 15.4167C14.3092 14.7267 14.8692 14.1667 15.5592 14.1667C16.2492 14.1667 16.8092 14.7267 16.8092 15.4167ZM14.3092 17.9167V18.75C14.3092 19.44 13.7492 20 13.0592 20H12.2259C11.5359 20 10.9759 19.44 10.9759 18.75V17.9167C10.9759 17.2267 11.5359 16.6667 12.2259 16.6667H13.0592C13.7492 16.6667 14.3092 17.2267 14.3092 17.9167ZM20.1426 12.0833V12.9167C20.1426 13.6067 19.5826 14.1667 18.8926 14.1667H18.0592C17.3692 14.1667 16.8092 13.6067 16.8092 12.9167V12.0833C16.8092 11.3933 17.3692 10.8333 18.0592 10.8333H18.8926C19.5826 10.8333 20.1426 11.3933 20.1426 12.0833Z" fill="white"/>
</g>
<defs>
<clipPath id="clip0_111_1075">
<rect width="20" height="20" fill="white" transform="translate(0.142578)"/>
</clipPath>
</defs>
</svg>
