<svg width="8" height="8" viewBox="0 0 8 8" fill="none" xmlns="http://www.w3.org/2000/svg">
<path d="M7.33333 1.138V3.33333C7.33333 3.51733 7.48267 3.66667 7.66667 3.66667C7.85067 3.66667 8 3.51733 8 3.33333V1C8 0.448667 7.55133 0 7 0H4.66667C4.48267 0 4.33333 0.149333 4.33333 0.333333C4.33333 0.517333 4.48267 0.666667 4.66667 0.666667H6.862L2.76433 4.76433C2.634 4.89467 2.634 5.10533 2.76433 5.23567C2.82933 5.30067 2.91467 5.33333 3 5.33333C3.08533 5.33333 3.17067 5.30067 3.23567 5.23567L7.33333 1.138ZM0.0163331 4.33233C0.167333 2.78967 1.41167 1.52467 2.95233 1.35467C3.46467 1.298 3.97 1.35567 4.44467 1.52333C4.55267 1.56133 4.63333 1.65233 4.65867 1.764C4.684 1.87567 4.65033 1.99267 4.56933 2.07333L2.27933 4.36333C1.90433 4.73833 1.90433 5.34633 2.27933 5.721C2.65433 6.096 3.26233 6.096 3.63733 5.721L5.92733 3.431C6.00833 3.35 6.12433 3.31667 6.23667 3.34167C6.348 3.367 6.439 3.44767 6.47733 3.55567C6.645 4.03033 6.70267 4.53533 6.646 5.04767C6.476 6.58833 5.21133 7.83233 3.669 7.98367C1.56867 8.19 -0.189 6.43267 0.0170002 4.33233H0.0163331Z" fill="#858585"/>
</svg>
