<svg width="22" height="22" viewBox="0 0 22 22" fill="none" xmlns="http://www.w3.org/2000/svg">
<circle opacity="0.2" cx="11" cy="11" r="11" fill="#2134E1"/>
<g clip-path="url(#clip0_480_24887)">
<path d="M8.08341 13.9167H10.5834V14.75H8.91675C8.80624 14.75 8.70026 14.7939 8.62212 14.872C8.54398 14.9502 8.50008 15.0562 8.50008 15.1667C8.50008 15.2772 8.54398 15.3832 8.62212 15.4613C8.70026 15.5394 8.80624 15.5833 8.91675 15.5833H13.0834C13.1939 15.5833 13.2999 15.5394 13.378 15.4613C13.4562 15.3832 13.5001 15.2772 13.5001 15.1667C13.5001 15.0562 13.4562 14.9502 13.378 14.872C13.2999 14.7939 13.1939 14.75 13.0834 14.75H11.4167V13.9167H13.9167C14.3968 13.9161 14.862 13.75 15.2339 13.4464C15.6058 13.1428 15.8617 12.7202 15.9584 12.25H6.04175C6.13845 12.7202 6.39432 13.1428 6.76623 13.4464C7.13813 13.75 7.60333 13.9161 8.08341 13.9167Z" fill="#1D3FF0"/>
<path d="M13.9167 6.41699H8.08333C7.531 6.41765 7.00148 6.63736 6.61092 7.02792C6.22037 7.41847 6.00066 7.94799 6 8.50033V11.417H16V8.50033C15.9993 7.94799 15.7796 7.41847 15.3891 7.02792C14.9985 6.63736 14.469 6.41765 13.9167 6.41699Z" fill="#1D3FF0"/>
</g>
<defs>
<clipPath id="clip0_480_24887">
<rect width="10" height="10" fill="white" transform="translate(6 6)"/>
</clipPath>
</defs>
</svg>
