<svg width="21" height="20" viewBox="0 0 21 20" fill="none" xmlns="http://www.w3.org/2000/svg">
<g clip-path="url(#clip0_111_1068)">
<path d="M14.3092 0H16.8092C17.6933 0 18.5411 0.35119 19.1663 0.976311C19.7914 1.60143 20.1426 2.44928 20.1426 3.33333V5.83333C20.1426 6.71739 19.7914 7.56524 19.1663 8.19036C18.5411 8.81548 17.6933 9.16667 16.8092 9.16667H14.3092C13.4252 9.16667 12.5773 8.81548 11.9522 8.19036C11.3271 7.56524 10.9759 6.71739 10.9759 5.83333V3.33333C10.9759 2.44928 11.3271 1.60143 11.9522 0.976311C12.5773 0.35119 13.4252 0 14.3092 0V0ZM12.6426 5.83333C12.6426 6.27536 12.8182 6.69928 13.1307 7.01184C13.4433 7.32441 13.8672 7.5 14.3092 7.5H16.8092C17.2513 7.5 17.6752 7.32441 17.9878 7.01184C18.3003 6.69928 18.4759 6.27536 18.4759 5.83333V3.33333C18.4759 2.89131 18.3003 2.46738 17.9878 2.15482C17.6752 1.84226 17.2513 1.66667 16.8092 1.66667H14.3092C13.8672 1.66667 13.4433 1.84226 13.1307 2.15482C12.8182 2.46738 12.6426 2.89131 12.6426 3.33333V5.83333Z" fill="white"/>
<path d="M3.47624 0H5.97624C6.86029 0 7.70814 0.35119 8.33326 0.976311C8.95838 1.60143 9.30957 2.44928 9.30957 3.33333V5.83333C9.30957 6.71739 8.95838 7.56524 8.33326 8.19036C7.70814 8.81548 6.86029 9.16667 5.97624 9.16667H3.47624C2.59218 9.16667 1.74434 8.81548 1.11921 8.19036C0.494093 7.56524 0.142903 6.71739 0.142903 5.83333V3.33333C0.142903 2.44928 0.494093 1.60143 1.11921 0.976311C1.74434 0.35119 2.59218 0 3.47624 0V0ZM1.80957 5.83333C1.80957 6.27536 1.98517 6.69928 2.29773 7.01184C2.61029 7.32441 3.03421 7.5 3.47624 7.5H5.97624C6.41826 7.5 6.84219 7.32441 7.15475 7.01184C7.46731 6.69928 7.6429 6.27536 7.6429 5.83333V3.33333C7.6429 2.89131 7.46731 2.46738 7.15475 2.15482C6.84219 1.84226 6.41826 1.66667 5.97624 1.66667H3.47624C3.03421 1.66667 2.61029 1.84226 2.29773 2.15482C1.98517 2.46738 1.80957 2.89131 1.80957 3.33333V5.83333Z" fill="white"/>
<path d="M14.3092 10.8333H16.8092C17.6933 10.8333 18.5411 11.1844 19.1663 11.8096C19.7914 12.4347 20.1426 13.2825 20.1426 14.1666V16.6666C20.1426 17.5506 19.7914 18.3985 19.1663 19.0236C18.5411 19.6487 17.6933 19.9999 16.8092 19.9999H14.3092C13.4252 19.9999 12.5773 19.6487 11.9522 19.0236C11.3271 18.3985 10.9759 17.5506 10.9759 16.6666V14.1666C10.9759 13.2825 11.3271 12.4347 11.9522 11.8096C12.5773 11.1844 13.4252 10.8333 14.3092 10.8333V10.8333ZM12.6426 16.6666C12.6426 17.1086 12.8182 17.5325 13.1307 17.8451C13.4433 18.1577 13.8672 18.3333 14.3092 18.3333H16.8092C17.2513 18.3333 17.6752 18.1577 17.9878 17.8451C18.3003 17.5325 18.4759 17.1086 18.4759 16.6666V14.1666C18.4759 13.7246 18.3003 13.3006 17.9878 12.9881C17.6752 12.6755 17.2513 12.4999 16.8092 12.4999H14.3092C13.8672 12.4999 13.4433 12.6755 13.1307 12.9881C12.8182 13.3006 12.6426 13.7246 12.6426 14.1666V16.6666Z" fill="white"/>
<path d="M3.47624 10.8333H5.97624C6.86029 10.8333 7.70814 11.1844 8.33326 11.8096C8.95838 12.4347 9.30957 13.2825 9.30957 14.1666V16.6666C9.30957 17.5506 8.95838 18.3985 8.33326 19.0236C7.70814 19.6487 6.86029 19.9999 5.97624 19.9999H3.47624C2.59218 19.9999 1.74434 19.6487 1.11921 19.0236C0.494093 18.3985 0.142903 17.5506 0.142903 16.6666V14.1666C0.142903 13.2825 0.494093 12.4347 1.11921 11.8096C1.74434 11.1844 2.59218 10.8333 3.47624 10.8333V10.8333ZM1.80957 16.6666C1.80957 17.1086 1.98517 17.5325 2.29773 17.8451C2.61029 18.1577 3.03421 18.3333 3.47624 18.3333H5.97624C6.41826 18.3333 6.84219 18.1577 7.15475 17.8451C7.46731 17.5325 7.6429 17.1086 7.6429 16.6666V14.1666C7.6429 13.7246 7.46731 13.3006 7.15475 12.9881C6.84219 12.6755 6.41826 12.4999 5.97624 12.4999H3.47624C3.03421 12.4999 2.61029 12.6755 2.29773 12.9881C1.98517 13.3006 1.80957 13.7246 1.80957 14.1666V16.6666Z" fill="white"/>
</g>
<defs>
<clipPath id="clip0_111_1068">
<rect width="20" height="20" fill="white" transform="matrix(-1 0 0 1 20.1426 0)"/>
</clipPath>
</defs>
</svg>
