<svg width="10" height="10" viewBox="0 0 10 10" fill="none" xmlns="http://www.w3.org/2000/svg">
<g clip-path="url(#clip0_662_2888)">
<path d="M4.45834 1.09421C4.11742 0.369332 3.25342 0.0580818 2.52855 0.399C2.22293 0.54275 1.97707 0.788609 1.83334 1.09421H0.625C0.279824 1.09421 0 1.37404 0 1.71921C0 2.06439 0.279824 2.34421 0.625 2.34421H1.83125C2.17217 3.0691 3.03617 3.38035 3.76104 3.03943C4.06664 2.8957 4.3125 2.64982 4.45625 2.34421H9.375C9.72018 2.34421 10 2.06439 10 1.71921C10 1.37404 9.72018 1.09421 9.375 1.09421H4.45834Z" fill="#333333"/>
<path d="M6.85625 3.54199C6.29443 3.54299 5.78338 3.86736 5.54334 4.37533H0.625C0.279824 4.37533 0 4.65516 0 5.00033C0 5.34551 0.279824 5.62533 0.625 5.62533H5.54166C5.88258 6.35021 6.74658 6.66147 7.47145 6.32055C7.77705 6.17682 8.02291 5.93094 8.16666 5.62533H9.375C9.72018 5.62533 10 5.34551 10 5.00033C10 4.65516 9.72018 4.37533 9.375 4.37533H8.16875C7.92877 3.8675 7.41793 3.54316 6.85625 3.54199Z" fill="#333333"/>
<path d="M3.14375 6.82324C2.58207 6.82439 2.07123 7.14875 1.83125 7.65658H0.625C0.279824 7.65658 0 7.93641 0 8.28158C0 8.62676 0.279824 8.90658 0.625 8.90658H1.83125C2.17217 9.63146 3.03617 9.94272 3.76104 9.6018C4.06664 9.45807 4.3125 9.21219 4.45625 8.90658H9.375C9.72018 8.90658 10 8.62676 10 8.28158C10 7.93641 9.72018 7.65658 9.375 7.65658H4.45834C4.21803 7.14809 3.70617 6.82361 3.14375 6.82324Z" fill="#333333"/>
</g>
<defs>
<clipPath id="clip0_662_2888">
<rect width="10" height="10" fill="white"/>
</clipPath>
</defs>
</svg>
