<svg width="10" height="10" viewBox="0 0 10 10" fill="none" xmlns="http://www.w3.org/2000/svg">
<g clip-path="url(#clip0_256_2369)">
<path d="M6.67946 8.53834L9.59363 4.56417C9.82093 4.25376 9.95783 3.88648 9.98917 3.50303C10.0205 3.11958 9.94505 2.73494 9.77117 2.39175C9.59729 2.04855 9.33177 1.76021 9.00404 1.55869C8.67632 1.35716 8.29919 1.25032 7.91446 1.25L2.08321 1.25C1.69811 1.2494 1.32039 1.35569 0.992106 1.55702C0.663823 1.75836 0.397851 2.04685 0.223798 2.39037C0.0497445 2.7339 -0.0255614 3.11899 0.00626173 3.50278C0.0380849 3.88657 0.175789 4.254 0.404046 4.56417L3.31821 8.53834C3.51173 8.80204 3.76463 9.01646 4.05642 9.16426C4.34821 9.31206 4.67071 9.38908 4.9978 9.38908C5.32489 9.38908 5.64738 9.31206 5.93917 9.16426C6.23097 9.01646 6.48386 8.80204 6.67738 8.53834L6.67946 8.53834Z" fill="white" fill-opacity="0.2"/>
</g>
<defs>
<clipPath id="clip0_256_2369">
<rect width="10" height="10" fill="white" transform="translate(10) rotate(90)"/>
</clipPath>
</defs>
</svg>
