<svg width="80" height="80" viewBox="0 0 80 80" fill="none" xmlns="http://www.w3.org/2000/svg">
<rect width="80" height="80" rx="5" fill="#333333"/>
<path d="M28.0927 35.3554L37.579 26.0991C38.4027 25.2741 39.5877 24.8704 40.739 25.0354L49.349 26.2129C50.0327 26.3066 50.5115 26.9366 50.4177 27.6204C50.324 28.3041 49.6952 28.7816 49.009 28.6891L40.3977 27.5116C40.0152 27.4591 39.6202 27.5904 39.334 27.8766L29.8465 37.1329C28.5402 38.4391 28.4127 40.4829 29.4427 41.9416C29.7352 41.3579 30.0965 40.8016 30.5815 40.3166L39.9252 31.0516C40.7477 30.2291 41.9215 29.8329 43.0852 29.9879L51.6965 31.1654C52.264 31.2429 52.7065 31.6966 52.769 32.2666L53.7252 40.9116C53.8502 42.0504 53.4577 43.1666 52.6452 43.9779L43.3752 53.1691C42.1952 54.3504 40.6265 54.9991 38.9577 54.9991H38.9365C37.259 54.9941 35.6865 54.3341 34.5077 53.1404L30.549 49.1304C29.3902 47.9566 28.8077 46.4316 28.7702 44.8954L28.049 44.1754C25.6427 41.7379 25.6565 37.7854 28.089 35.3541L28.0927 35.3554ZM47.5002 37.5004C48.1902 37.5004 48.7502 36.9404 48.7502 36.2504C48.7427 34.6154 46.2577 34.6166 46.2502 36.2504C46.2502 36.9404 46.8102 37.5004 47.5002 37.5004Z" fill="white" fill-opacity="0.5"/>
</svg>
