<svg width="22" height="22" viewBox="0 0 22 22" fill="none" xmlns="http://www.w3.org/2000/svg">
<circle opacity="0.2" cx="11" cy="11" r="11" fill="#1D9BF0"/>
<g clip-path="url(#clip0_480_24883)">
<path d="M14.9762 8.96014C14.9821 9.04806 14.9821 9.13639 14.9821 9.22514C14.9821 11.9364 12.9179 15.0626 9.14458 15.0626V15.061C8.03 15.0626 6.93833 14.7435 6 14.1414C6.16208 14.161 6.325 14.1706 6.48833 14.171C7.4125 14.1718 8.31 13.8618 9.03625 13.291C8.15833 13.2743 7.38833 12.7018 7.11958 11.866C7.42708 11.9251 7.74375 11.9131 8.04583 11.831C7.08833 11.6376 6.4 10.7964 6.4 9.81973C6.4 9.81098 6.4 9.80222 6.4 9.79389C6.68542 9.95306 7.00458 10.041 7.33125 10.0506C6.42958 9.44847 6.15125 8.24931 6.69583 7.31181C7.7375 8.59348 9.27458 9.37264 10.9242 9.45556C10.7587 8.74306 10.985 7.99639 11.5175 7.49514C12.3437 6.71806 13.6433 6.75806 14.4204 7.58431C14.88 7.49389 15.3204 7.32514 15.7233 7.08639C15.57 7.56139 15.2496 7.96473 14.8212 8.22139C15.2283 8.17264 15.6254 8.06389 16 7.89806C15.7246 8.31014 15.3779 8.66973 14.9762 8.96014Z" fill="#1D9BF0"/>
</g>
<defs>
<clipPath id="clip0_480_24883">
<rect width="10" height="10" fill="white" transform="translate(6 6)"/>
</clipPath>
</defs>
</svg>
