<svg width="10" height="10" viewBox="0 0 10 10" fill="none" xmlns="http://www.w3.org/2000/svg">
<g clip-path="url(#clip0_385_11388)">
<path d="M7.49999 5.417C7.13351 5.41574 6.77689 5.5357 6.48567 5.7582C6.19446 5.9807 5.985 6.29326 5.8899 6.6472C5.79481 7.00113 5.81943 7.37658 5.95992 7.71507C6.10041 8.05356 6.34889 8.33609 6.66666 8.51867V9.69909C6.66663 9.75852 6.68423 9.81663 6.71724 9.86606C6.75025 9.91549 6.79718 9.95402 6.85209 9.97677C6.907 9.99952 6.96743 10.0055 7.02572 9.99387C7.08402 9.98226 7.13756 9.95363 7.17957 9.91159L7.49999 9.59159L7.82041 9.91159C7.86242 9.95363 7.91596 9.98226 7.97426 9.99387C8.03255 10.0055 8.09298 9.99952 8.14789 9.97677C8.2028 9.95402 8.24973 9.91549 8.28274 9.86606C8.31575 9.81663 8.33335 9.75852 8.33332 9.69909V8.51867C8.6511 8.33609 8.89957 8.05356 9.04006 7.71507C9.18055 7.37658 9.20517 7.00113 9.11008 6.6472C9.01498 6.29326 8.80552 5.9807 8.51431 5.7582C8.22309 5.5357 7.86648 5.41574 7.49999 5.417Z" fill="#DBFF74"/>
<path d="M5 7.08333C4.99949 6.64433 5.11472 6.21295 5.33408 5.83268C5.55345 5.45241 5.86918 5.13669 6.24947 4.91735C6.62975 4.69801 7.06114 4.5828 7.50015 4.58334C7.93915 4.58388 8.37026 4.70014 8.75 4.92042V2.08333C8.74934 1.531 8.52963 1.00148 8.13908 0.610925C7.74852 0.220367 7.219 0.000661607 6.66667 0L3.33333 0C2.781 0.000661607 2.25148 0.220367 1.86092 0.610925C1.47037 1.00148 1.25066 1.531 1.25 2.08333V7.08333C1.25066 7.63566 1.47037 8.16519 1.86092 8.55574C2.25148 8.9463 2.781 9.16601 3.33333 9.16667H5.83333V8.94167C5.57128 8.70816 5.36156 8.42188 5.21795 8.10161C5.07433 7.78134 5.00006 7.43433 5 7.08333V7.08333ZM3.33333 1.66667H6.66667C6.77717 1.66667 6.88315 1.71057 6.96129 1.78871C7.03943 1.86685 7.08333 1.97283 7.08333 2.08333C7.08333 2.19384 7.03943 2.29982 6.96129 2.37796C6.88315 2.4561 6.77717 2.5 6.66667 2.5H3.33333C3.22283 2.5 3.11685 2.4561 3.03871 2.37796C2.96057 2.29982 2.91667 2.19384 2.91667 2.08333C2.91667 1.97283 2.96057 1.86685 3.03871 1.78871C3.11685 1.71057 3.22283 1.66667 3.33333 1.66667V1.66667ZM3.33333 3.33333H6.66667C6.77717 3.33333 6.88315 3.37723 6.96129 3.45537C7.03943 3.53351 7.08333 3.63949 7.08333 3.75C7.08333 3.86051 7.03943 3.96649 6.96129 4.04463C6.88315 4.12277 6.77717 4.16667 6.66667 4.16667H3.33333C3.22283 4.16667 3.11685 4.12277 3.03871 4.04463C2.96057 3.96649 2.91667 3.86051 2.91667 3.75C2.91667 3.63949 2.96057 3.53351 3.03871 3.45537C3.11685 3.37723 3.22283 3.33333 3.33333 3.33333ZM4.58333 5.83333H3.33333C3.22283 5.83333 3.11685 5.78943 3.03871 5.71129C2.96057 5.63315 2.91667 5.52717 2.91667 5.41667C2.91667 5.30616 2.96057 5.20018 3.03871 5.12204C3.11685 5.0439 3.22283 5 3.33333 5H4.58333C4.69384 5 4.79982 5.0439 4.87796 5.12204C4.9561 5.20018 5 5.30616 5 5.41667C5 5.52717 4.9561 5.63315 4.87796 5.71129C4.79982 5.78943 4.69384 5.83333 4.58333 5.83333Z" fill="#DBFF74"/>
</g>
<defs>
<clipPath id="clip0_385_11388">
<rect width="10" height="10" fill="white"/>
</clipPath>
</defs>
</svg>
