<svg width="10" height="10" viewBox="0 0 10 10" fill="none" xmlns="http://www.w3.org/2000/svg">
<g clip-path="url(#clip0_385_11394)">
<path d="M10 2.96064V0H9.41V1.40621H7.62722C7.62722 0.629545 6.99722 0 6.22 0H3.51833V0.589574H4.70444V2.37051H2.96278V0H2.37278V1.18526H0.59V0H0V3.88275V4.10925H1.47944V5.89019H0V6.47976H2.07333H2.40944V8.07195V8.22406V8.81363V8.89913V9.40932H0.59V8.81363H1.99722V8.22406H0.59V7.62838H2.12444V7.03881H0.59H0V9.99944H0.59H2.40944H2.66778H3V7.62838H4.705V8.27291H5.295V7.62838H7.37667V9.99944H7.96667V8.81419H9.11111C9.27556 8.81419 9.40944 8.94743 9.40944 9.11231V10H10V7.62893C10 7.30306 9.73556 7.03936 9.41 7.03936H7.96722H7.37722H3V6.47532C3.70278 6.42758 4.27167 5.97291 4.39111 5.29506H5.89111V6.48032H5.94H10V5.89075H8.81389V4.10925H10V3.51968H7.62722V1.99578H9.41V2.96064H10ZM7.96722 7.62893H9.11167C9.27611 7.62893 9.41 7.76217 9.41 7.92705C9.41 8.09138 9.27667 8.22517 9.11167 8.22517H7.96722V7.62893ZM5.295 1.46006C5.295 0.979293 5.685 0.589574 6.16611 0.589574C6.64722 0.589574 7.03722 0.979293 7.03722 1.46006V1.50058C7.03722 1.98135 6.64722 2.37107 6.16611 2.37107C5.685 2.37107 5.295 1.98135 5.295 1.50058V1.46006ZM2.86 5.88797H2.07333V5.89075H2.06944V4.10925H2.30389H2.89889C3.30833 4.10925 3.805 4.34242 3.805 5.01749C3.80556 5.57486 3.39611 5.88797 2.86 5.88797ZM8.22333 5.89075H6.48167V3.51968H5.89167V4.70494H4.38889C4.25889 3.93494 3.65278 3.51968 2.85167 3.51968H2.30444H2.07333H0.59V1.77538H2.37222V2.96064H2.96222H7.03611V3.99156V4.1087H8.22222V5.89075H8.22333Z" fill="white"/>
<path d="M3.77141 8.90889H3.5803V8.69238H3.41919V9.27363H3.5803V9.05046H3.77141V9.27363H3.93252V8.69238H3.77141V8.90889Z" fill="white"/>
<path d="M4.36524 8.67969C4.20135 8.67969 4.06079 8.80349 4.06079 8.98724C4.06079 9.17266 4.18635 9.28647 4.36524 9.28647C4.53746 9.28647 4.66801 9.16656 4.66801 8.98724C4.66801 8.80127 4.53135 8.67969 4.36524 8.67969ZM4.36857 9.1438C4.28746 9.1438 4.22746 9.08828 4.22746 8.98558C4.22746 8.87788 4.29079 8.82236 4.36301 8.82236C4.43857 8.82236 4.50135 8.87954 4.50135 8.98558C4.50079 9.08662 4.44579 9.1438 4.36857 9.1438Z" fill="white"/>
<path d="M5.43872 8.69238V9.27363H5.81094V9.13207H5.59928V8.69238H5.43872Z" fill="white"/>
<path d="M6.3178 8.83228V8.69238H5.94336V9.27363H6.32669V9.13373H6.10447V9.04546H6.28891V8.91389H6.10447V8.83228H6.3178Z" fill="white"/>
<path d="M6.9012 8.86504C6.9012 8.76511 6.82064 8.69238 6.68231 8.69238H6.46509V9.27363H6.6262V9.04213H6.63731L6.78175 9.27363H6.9612V9.26919L6.79342 9.02659C6.85731 9.00216 6.9012 8.94609 6.9012 8.86504ZM6.67453 8.9422H6.62564V8.82007H6.67342C6.71287 8.82007 6.73842 8.84394 6.73842 8.88114C6.73842 8.92388 6.71009 8.9422 6.67453 8.9422Z" fill="white"/>
<path d="M3.67592 9.75914H3.8237V9.89071C3.80092 9.91736 3.75703 9.93013 3.70259 9.93013C3.58315 9.93013 3.4987 9.84519 3.4987 9.71695C3.4987 9.56484 3.5937 9.49267 3.69703 9.49267C3.77426 9.49267 3.83148 9.52598 3.85759 9.54763L3.87703 9.48045C3.8437 9.45603 3.7737 9.42383 3.6987 9.42383C3.52926 9.42383 3.4187 9.55262 3.4187 9.72084C3.4187 9.86573 3.52592 9.99952 3.69759 9.99952C3.78481 9.99952 3.84815 9.96955 3.90037 9.92069V9.69308H3.67481V9.75914H3.67592Z" fill="white"/>
<path d="M4.737 9.43652H4.66089V9.98779H4.97256V9.92117H4.737V9.43652Z" fill="white"/>
<path d="M5.19135 9.43652H5.11523V9.98779H5.4269V9.92117H5.19135V9.43652Z" fill="white"/>
<path d="M5.64649 9.73409H5.85816V9.66747H5.64649V9.50314H5.8826V9.43652H5.56982V9.98779H5.89094V9.92117H5.64649V9.73409Z" fill="white"/>
<path d="M6.393 9.59696C6.393 9.49426 6.32633 9.43652 6.20966 9.43652H6.05688V9.98779H6.13355V9.75907H6.17744L6.34744 9.98779H6.43355V9.97724L6.26077 9.75185C6.34633 9.73742 6.393 9.67302 6.393 9.59696ZM6.133 9.69578V9.50037H6.20577C6.27077 9.50037 6.31411 9.53034 6.31411 9.59641C6.31411 9.66747 6.273 9.69634 6.21355 9.69634H6.133V9.69578Z" fill="white"/>
<path d="M6.73258 9.66858H6.72647L6.57981 9.43652H6.49536L6.68981 9.74241V9.98779H6.76647V9.74241L6.96092 9.43652H6.87647L6.73258 9.66858Z" fill="white"/>
<path d="M5.30972 8.98828C5.30972 8.79675 5.16861 8.69238 4.99639 8.69238H4.79639V8.82895H4.9575H4.96416H5.00472C5.06861 8.82895 5.1475 8.87614 5.1475 8.98606C5.1475 9.07599 5.08361 9.13651 5.00139 9.13651H4.96472H4.95805H4.79694V9.27363H4.99805C5.17305 9.27363 5.30972 9.15871 5.30972 8.98828Z" fill="white"/>
<path d="M4.2603 9.41992L4.01196 9.98729H4.09307L4.26474 9.5737H4.2703L4.44474 9.98729H4.52585L4.27585 9.41992H4.2603Z" fill="white"/>
</g>
<defs>
<clipPath id="clip0_385_11394">
<rect width="10" height="10" fill="white"/>
</clipPath>
</defs>
</svg>
