<svg width="10" height="10" viewBox="0 0 10 10" fill="none" xmlns="http://www.w3.org/2000/svg">
<g clip-path="url(#clip0_385_11391)">
<path d="M8.97625 2.96014C8.98208 3.04806 8.98208 3.13639 8.98208 3.22514C8.98208 5.93639 6.91792 9.06264 3.14458 9.06264V9.06098C2.03 9.06264 0.938333 8.74348 0 8.14139C0.162083 8.16098 0.325 8.17056 0.488333 8.17098C1.4125 8.17181 2.31 7.86181 3.03625 7.29097C2.15833 7.27431 1.38833 6.70181 1.11958 5.86597C1.42708 5.92514 1.74375 5.91306 2.04583 5.83098C1.08833 5.63764 0.4 4.79639 0.4 3.81973C0.4 3.81098 0.4 3.80222 0.4 3.79389C0.685417 3.95306 1.00458 4.04098 1.33125 4.05056C0.429583 3.44847 0.15125 2.24931 0.695833 1.31181C1.7375 2.59348 3.27458 3.37264 4.92417 3.45556C4.75875 2.74306 4.985 1.99639 5.5175 1.49514C6.34375 0.718059 7.64333 0.758059 8.42042 1.58431C8.88 1.49389 9.32042 1.32514 9.72333 1.08639C9.57 1.56139 9.24958 1.96473 8.82125 2.22139C9.22833 2.17264 9.62542 2.06389 10 1.89806C9.72458 2.31014 9.37792 2.66973 8.97625 2.96014Z" fill="#30CEF3"/>
</g>
<defs>
<clipPath id="clip0_385_11391">
<rect width="10" height="10" fill="white"/>
</clipPath>
</defs>
</svg>
